<svg width="170" height="154" viewBox="0 0 170 154" fill="none" xmlns="http://www.w3.org/2000/svg">
<path d="M0 0H170V145.623C170 150.041 166.418 153.623 162 153.623H8C3.58172 153.623 0 150.041 0 145.623V0Z" fill="white"/>
<g clip-path="url(#clip0_684_57616)">
<path d="M66.8162 28.0494C62.7528 28.1138 61.6898 29.614 61.63 33.1114L61.3769 53.1798C61.2527 62.3051 57.4424 71.4949 43.6876 71.4949C32.1234 71.4949 23.3109 66.4927 23.3109 53.1199V33.1114C23.3109 29.614 22.1835 28.1138 18.1201 28.0494V26.1719C23.1223 26.3605 25.2437 26.3605 27.2455 26.3605C29.2472 26.3605 31.3871 26.3605 36.3754 26.1719V28.0494C32.312 28.1138 31.1846 29.614 31.1846 33.1114V54.6799C31.1846 64.0584 37.1255 69.1204 44.1248 69.1204C55.0034 69.1204 58.8781 62.1164 58.8781 51.2424C58.8781 47.7404 58.8137 45.2601 58.7539 42.499L58.5652 33.4335C58.5008 29.683 57.6909 28.0586 53.1259 28.0586V26.1811C55.4268 26.2455 57.9394 26.3697 59.8767 26.3697C61.8141 26.3697 64.3819 26.2455 66.8162 26.1811V28.0494Z" fill="#CC0011"/>
<path d="M110.078 40.0561H108.449C107.069 31.055 99.4483 27.7417 91.9474 27.7417C83.632 27.7417 75.5696 34.3039 75.5696 46.4342C75.5696 58.1871 82.3204 68.8771 93.1346 68.8771C97.8239 68.8771 105.141 66.116 110.516 57.6211L110.543 64.984C105.339 69.3695 97.8239 71.4817 91.1375 71.4817C69.5091 71.4817 66.3154 54.7312 66.3154 47.9159C66.3154 37.792 73.508 25.3672 92.9506 25.3672C96.8851 25.3672 104.138 26.49 110.078 28.8691V40.0561Z" fill="#CC0011"/>
<path d="M143.293 30.549V30.5168C143.228 30.3235 142.985 29.3157 144.535 29.1041C144.728 28.7253 144.99 28.3864 145.308 28.1055C145.602 28.4272 145.85 28.7881 146.045 29.1777C146.384 29.24 146.693 29.4119 146.925 29.6672C147.157 29.9224 147.299 30.2468 147.329 30.5904C147.329 30.5904 146.546 30.1303 146.362 30.7147L146.445 32.6888H148.318C148.443 32.5852 148.534 32.4465 148.579 32.2906C148.624 32.1347 148.621 31.9688 148.571 31.8145C148.571 31.8145 149.8 31.2485 149.869 33.0892C150.26 33.2435 150.625 33.4577 150.95 33.7242C150.665 34.1107 150.261 34.3934 149.8 34.5296C149.8 34.5296 149.653 35.8503 148.502 35.7767C148.502 35.7767 148.893 35.0588 148.332 34.8287H146.362V36.7845C146.398 36.8548 146.448 36.9173 146.508 36.9684C146.568 37.0195 146.638 37.0582 146.714 37.0821C146.789 37.1061 146.868 37.1149 146.947 37.108C147.026 37.1012 147.102 37.0788 147.172 37.0421C147.172 37.0421 147.77 38.326 146.072 38.326C145.892 38.7485 145.633 39.1327 145.308 39.4581C144.959 39.1278 144.692 38.7193 144.531 38.2662C144.531 38.2662 143.302 38.165 143.284 37.0237C143.284 37.0237 143.946 37.2722 144.245 36.7983L144.158 34.8425H142.276C142.198 34.8857 142.13 34.9452 142.077 35.017C142.024 35.0887 141.987 35.1711 141.969 35.2584C141.95 35.3458 141.951 35.436 141.971 35.5231C141.99 35.6101 142.029 35.6919 142.083 35.7629C142.083 35.7629 140.808 36.1816 140.702 34.5434C140.299 34.3574 139.935 34.0967 139.63 33.7749C139.957 33.4473 140.347 33.1891 140.776 33.0156C140.776 33.0156 140.946 31.7225 142.096 31.7363C142.096 31.7363 141.682 32.514 142.257 32.6981H144.241V30.7285C144.198 30.6465 144.136 30.5753 144.062 30.5202C143.987 30.4651 143.901 30.4275 143.81 30.4103C143.719 30.393 143.625 30.3965 143.536 30.4206C143.446 30.4446 143.363 30.4885 143.293 30.549ZM144.673 30.4662V33.149H141.991C141.846 33.0864 141.722 32.9839 141.633 32.8536C141.544 32.7232 141.494 32.5704 141.489 32.4128C141.357 32.5429 141.254 32.6996 141.186 32.8725C141.119 33.0454 141.089 33.2306 141.098 33.4159C140.929 33.4106 140.761 33.4387 140.603 33.4987C140.445 33.5588 140.3 33.6495 140.177 33.7657C140.416 33.9835 140.724 34.1105 141.047 34.1246C141.089 35.3303 141.507 35.2889 141.507 35.2889C141.36 34.7597 141.968 34.3685 141.968 34.3685H144.632V37.0053C144.546 37.14 144.433 37.2551 144.3 37.3431C144.167 37.4311 144.016 37.4901 143.859 37.5161C143.988 37.8429 144.848 37.9763 144.848 37.9763C144.843 38.1557 144.883 38.3336 144.963 38.4942C145.043 38.6547 145.162 38.793 145.308 38.8967C145.548 38.7402 145.631 37.9441 145.631 37.9441C146.579 38.1512 146.786 37.5391 146.786 37.5391C146.599 37.5384 146.416 37.4887 146.254 37.3951C146.093 37.3014 145.959 37.167 145.865 37.0053V34.4007H148.502C148.925 34.5158 149.041 35.2014 149.041 35.2014C149.29 34.8808 149.432 34.4894 149.445 34.0832C149.6 34.0906 149.755 34.0672 149.9 34.0143C150.045 33.9613 150.179 33.88 150.292 33.7749C150.185 33.6511 150.053 33.5511 149.905 33.4813C149.757 33.4116 149.595 33.3736 149.432 33.3699C149.538 32.3989 149.054 32.1689 149.054 32.1689C149.046 32.3546 149.002 32.5368 148.923 32.7051C148.844 32.8734 148.732 33.0243 148.594 33.149H145.87V30.434C145.971 30.304 146.097 30.1962 146.241 30.117C146.385 30.0379 146.544 29.9891 146.707 29.9738C146.394 29.7386 146.013 29.6096 145.621 29.6057C145.624 29.2854 145.507 28.9756 145.295 28.7359C145.073 28.9802 144.933 29.2874 144.894 29.6149C144.015 29.4262 143.758 29.9462 143.758 29.9462C143.941 29.945 144.121 29.9926 144.279 30.084C144.438 30.1753 144.569 30.3073 144.66 30.4662H144.673Z" fill="#CC0011"/>
<path d="M114.693 30.552L116.769 28.4766L119.893 31.6012L123.027 28.4766L125.199 30.6486L121.325 34.33V39.392H118.379V34.33L114.693 30.552ZM118.78 34.1276V38.8996H120.91V34.0954L124.412 30.6302L122.981 29.1208L119.87 32.227L116.714 29.0656L115.296 30.5336L118.78 34.1276Z" fill="#CC0011"/>
<path d="M119.45 32.5234H120.255L120.076 33.2367L120.614 32.9698V33.8626L120.154 33.6831V35.0268C120.1 35.1977 120.008 35.3547 119.887 35.487C119.8 35.487 119.708 35.3075 119.62 35.0268V33.6831L119.082 33.8626V32.9698L119.62 33.2367L119.441 32.5234H119.45Z" fill="#CC0011"/>
<path d="M119.361 35.8281H120.253L120.074 36.454L120.612 36.2745V37.0798L120.074 36.9003V38.3315C119.986 38.603 119.894 38.6904 119.807 38.6904C119.674 38.6093 119.577 38.4811 119.535 38.3315V36.9003L119.075 37.0798V36.2745L119.614 36.454L119.347 35.8281H119.361Z" fill="#CC0011"/>
<path d="M116.145 30.6454L116.77 30.0195L117.129 30.5533L117.309 30.0195L117.935 30.6454L117.396 30.8248L118.468 31.8971C118.526 31.9053 118.58 31.9295 118.625 31.9667C118.669 32.004 118.702 32.0529 118.721 32.108C118.739 32.1631 118.742 32.2222 118.728 32.2788C118.715 32.3353 118.686 32.387 118.645 32.4281C118.604 32.4691 118.552 32.498 118.496 32.5113C118.439 32.5247 118.38 32.522 118.325 32.5037C118.27 32.4854 118.221 32.4521 118.184 32.4075C118.146 32.3629 118.122 32.3089 118.114 32.2514L117.037 31.2712L116.862 31.7314L116.237 31.1056L116.77 30.9261L116.145 30.6592V30.6454Z" fill="#CC0011"/>
<path d="M122.94 29.9279L123.565 30.5537L123.027 30.9127L123.565 31.0921L122.94 31.7318L122.668 31.2716L121.688 32.3438C121.513 32.3979 121.332 32.4273 121.149 32.4312C121.156 32.274 121.187 32.1187 121.241 31.9711L122.314 30.8989L121.853 30.6319L122.387 30.0061L122.654 30.5399L122.926 29.9141L122.94 29.9279Z" fill="#CC0011"/>
<path d="M122.147 58.0624C122.414 58.1038 123.395 58.3983 123.395 58.3983C123.473 58.2787 124.181 57.5562 124.181 57.5562C124.016 57.4641 123.059 57.1328 123.059 57.1328C122.953 57.2248 122.147 58.0624 122.147 58.0624Z" fill="#CC0011"/>
<path d="M143.672 58.6992L143.304 59.072L143.672 59.4401L144.04 59.072L143.672 58.6992Z" fill="#CC0011"/>
<path d="M141.185 57.2815L140.817 57.6497L140.444 57.2815L140.817 56.918L141.185 57.2815Z" fill="#CC0011"/>
<path d="M142.985 58.1826L142.225 58.9234L141.484 58.178L142.248 57.4141L142.985 58.1826ZM142.234 58.0399L142.101 58.1642L142.234 58.2976L142.382 58.1734L142.234 58.0399Z" fill="#CC0011"/>
<path d="M126.859 52.2099C126.839 52.197 126.823 52.1791 126.813 52.1581C126.802 52.1371 126.798 52.1137 126.799 52.0903C126.801 52.104 126.801 52.1179 126.799 52.1317C126.768 52.2135 126.761 52.3024 126.779 52.388C126.797 52.4736 126.839 52.5523 126.9 52.6149L127.057 52.4538L127.213 52.2973C127.211 52.2775 127.211 52.2574 127.213 52.2375C127.235 52.1972 127.249 52.1527 127.253 52.1068C127.257 52.061 127.251 52.0148 127.236 51.9714C127.22 51.9279 127.196 51.8882 127.165 51.8547C127.133 51.8213 127.095 51.7949 127.052 51.7773L126.955 51.9752L126.859 52.2099Z" fill="#CC0011"/>
<path d="M151.724 42.0855C151.811 68.8127 132.773 72.6552 132.773 72.6552C132.773 72.6552 113.823 68.6332 113.823 42.0855V26.7109H151.724V42.0855ZM114.629 27.4702V41.4597C114.629 41.4597 115.889 42.4813 116.929 42.4444C116.929 42.4444 117.735 42.7113 119.046 41.3354C119.046 41.3354 120.211 39.9779 121.508 39.9871C121.508 39.9871 122.272 39.757 124.122 41.1007C124.122 41.1007 125.406 42.4813 126.966 42.4813C126.966 42.4813 128.323 42.5733 129.833 41.156C129.833 41.156 131.112 39.9825 132.594 39.9503C132.594 39.9503 133.703 39.7432 135.452 41.1928C135.452 41.1928 136.754 42.4859 138.319 42.4813C138.858 42.4416 139.383 42.2882 139.859 42.0312C140.335 41.7743 140.751 41.4195 141.08 40.9903C141.08 40.9903 142.354 39.7156 143.698 39.7478C144.69 39.8099 145.619 40.2555 146.289 40.9903C146.289 40.9903 147.766 42.5733 148.907 42.4352C148.907 42.4352 150.256 42.4352 150.895 41.4505V27.5071L114.629 27.4702ZM132.529 42.5457H132.138V46.4572H132.529V42.5457ZM133.372 42.5457H132.98V46.4572H133.39L133.372 42.5457ZM133.777 42.1821C133.854 42.0263 133.895 41.8547 133.896 41.6805C133.878 41.3958 133.752 41.1286 133.544 40.9334C133.336 40.7382 133.061 40.6296 132.776 40.6296C132.49 40.6296 132.216 40.7382 132.008 40.9334C131.799 41.1286 131.673 41.3958 131.655 41.6805C131.656 41.8528 131.695 42.0227 131.77 42.1776H132.529C132.442 42.1334 132.368 42.0667 132.314 41.9843C132.261 41.902 132.231 41.8069 132.226 41.7089C132.222 41.6109 132.244 41.5135 132.29 41.4267C132.335 41.34 132.403 41.267 132.487 41.2152C132.57 41.1635 132.666 41.1349 132.764 41.1324C132.862 41.1299 132.959 41.1535 133.045 41.2009C133.131 41.2483 133.202 41.3177 133.253 41.402C133.303 41.4863 133.33 41.5825 133.33 41.6805C133.331 41.7846 133.301 41.8865 133.246 41.9746C133.191 42.0626 133.111 42.133 133.017 42.1776L133.777 42.1821ZM128.618 60.3638V61.8824H137.656C137.656 61.8824 138.411 65.2141 140.417 65.4764V64.0314C140.417 64.0314 139.851 64.1695 139.446 63.1341L138.912 61.6017C138.912 61.6017 141.167 60.8194 142.322 59.5953L140.997 58.836C140.238 59.3935 139.405 59.8412 138.521 60.1659L137.992 58.4817L136.657 58.767L137.168 60.3592L128.618 60.3638ZM130.137 62.2505V62.7659H133.174V62.2413L130.137 62.2505ZM128.701 62.2091V65.2877H135.603C135.603 65.2877 135.972 65.2647 135.958 64.938C135.958 64.938 136.018 64.6941 135.668 64.349L133.643 62.1953V63.2261H129.709V62.2183L128.701 62.2091ZM127.629 65.7479V66.2449H138.291L134.582 62.2045H134.31L136.151 64.1971C136.272 64.3427 136.354 64.5168 136.388 64.7029C136.423 64.8889 136.409 65.0808 136.349 65.2601C136.349 65.2601 136.206 65.6973 135.511 65.7433L127.629 65.7479ZM143.569 59.9082C144.655 60.3684 144.973 59.8024 144.973 59.8024C145.391 59.0385 144.467 58.4633 144.467 58.4633L140.905 56.4155C139.906 56.1348 139.648 56.7376 139.648 56.7376C139.553 56.9497 139.538 57.1892 139.606 57.4118C139.673 57.6343 139.819 57.8248 140.017 57.9479L143.569 59.9082ZM128.245 61.4912V60.3132C126.989 59.708 125.702 59.1688 124.389 58.698C124.389 58.698 124.918 58.0629 125.098 57.8834C126.44 58.4754 127.722 59.1951 128.926 60.0325H130.417C127.36 57.6103 123.737 56.0061 119.888 55.3709C119.888 55.3709 119.493 55.2696 119.355 55.7804C119.332 55.9015 119.356 56.0266 119.422 56.1307C119.487 56.2348 119.59 56.3103 119.709 56.3418C120.489 56.453 121.258 56.6269 122.01 56.8618L121.016 57.8788C121.016 57.8788 119.557 57.6027 118.784 57.5107C118.646 57.507 118.511 57.5581 118.41 57.6529C118.31 57.7477 118.25 57.8786 118.246 58.0169C118.246 58.0169 118.186 58.4541 118.54 58.5783C118.558 58.5783 123.754 58.8222 128.245 61.4912ZM126.865 49.66C127.023 49.5318 127.214 49.4512 127.416 49.4275C127.618 49.4039 127.823 49.4383 128.006 49.5266C128.101 49.5037 128.199 49.5039 128.294 49.5271C128.388 49.5503 128.476 49.5959 128.549 49.66C128.512 49.4983 128.515 49.3302 128.558 49.1699C128.6 49.0096 128.681 48.862 128.793 48.7397C128.769 48.8128 128.76 48.8902 128.768 48.9669C128.776 49.0435 128.8 49.1176 128.839 49.1842C128.877 49.2508 128.93 49.3084 128.993 49.3531C129.055 49.3979 129.127 49.4288 129.202 49.4438C128.604 49.8303 129.202 50.1248 129.202 50.1248C128.554 50.516 129.152 50.8151 129.152 50.8151C128.692 51.2201 129.258 51.2753 129.258 51.2753C129.083 52.1956 129.718 52.4395 129.718 52.4395C129.645 52.4651 129.565 52.4651 129.492 52.4395C129.658 53.4189 129.658 54.4191 129.492 55.3985C129.522 55.4635 129.537 55.5341 129.537 55.6056C129.537 55.677 129.522 55.7476 129.492 55.8126C129.626 56.1854 129.207 56.1992 129.207 56.1992C129.126 56.4159 129.013 56.6191 128.871 56.802L129.028 57.0091L129.386 56.5489L129.479 56.6364L129.207 57.1748L129.667 57.0827C129.796 57.034 129.908 56.949 129.99 56.838C130.072 56.7269 130.119 56.5945 130.127 56.4569C129.883 55.716 130.307 55.4767 130.307 55.4767C129.98 54.4459 130.445 52.2555 130.445 52.2555C131.126 52.1818 130.767 51.3811 130.767 51.3811C131.255 51.1188 130.882 50.5758 130.882 50.5758C131.292 50.3503 130.993 49.7705 130.993 49.7705C131.407 49.4898 131.163 48.8179 131.163 48.8179C131.623 48.6293 131.292 48.0494 131.292 48.0494C131.669 47.8055 131.292 47.1521 131.292 47.1521C131.628 47.2625 131.752 46.6919 131.752 46.6919V42.3202C131.597 42.3345 131.447 42.3832 131.313 42.4628C131.179 42.5424 131.065 42.6509 130.979 42.7804C130.798 42.7792 130.621 42.8364 130.476 42.9433C130.33 43.0502 130.222 43.2012 130.169 43.374C129.969 43.3794 129.777 43.4525 129.624 43.5812C129.471 43.7099 129.366 43.8867 129.327 44.0827C128.673 44.0827 128.673 44.888 128.673 44.888C128.523 44.9181 128.391 45.0058 128.305 45.1323C128.219 45.2587 128.186 45.4139 128.213 45.5645C128.09 45.6355 127.986 45.7355 127.911 45.8558C127.836 45.9761 127.791 46.1131 127.78 46.2547C127.352 46.4434 127.352 47.0416 127.352 47.0416C126.828 47.1889 127.012 47.7687 127.012 47.7687C126.621 47.939 126.773 48.5372 126.773 48.5372C126.657 48.634 126.564 48.7543 126.499 48.89C126.434 49.0257 126.399 49.1737 126.395 49.3241C126.564 49.4309 126.726 49.5493 126.879 49.6785L126.865 49.66ZM126.303 50.5804C126.713 51.3627 127.224 51.3305 127.224 51.3305C127.412 51.3617 127.606 51.3415 127.784 51.2718C127.962 51.2022 128.119 51.0857 128.236 50.9347C128.335 50.809 128.395 50.6568 128.408 50.4972C128.421 50.3376 128.387 50.1776 128.31 50.0374C128.158 49.7567 127.974 50.0926 127.974 50.0926C127.73 50.8243 127.431 50.7875 127.431 50.7875C127.017 50.9532 126.717 50.2399 126.717 50.2399C126.619 50.032 126.462 49.8576 126.266 49.7381C126.07 49.6187 125.843 49.5596 125.613 49.568C125.917 49.8422 126.158 50.18 126.317 50.5574L126.303 50.5804ZM126.359 51.9609C126.339 52.0934 126.292 52.2203 126.22 52.3337C126.404 52.4207 126.568 52.5431 126.704 52.694C126.84 52.8448 126.945 53.0211 127.012 53.2126C127.445 54.11 127.836 53.8293 127.836 53.8293L127.656 53.5486C127.612 53.5002 127.587 53.437 127.587 53.3714C127.587 53.3058 127.612 53.2426 127.656 53.1942C127.822 53.0654 128.011 53.2494 128.011 53.2494C127.638 52.4073 128.268 52.2232 128.268 52.2232C128.299 51.9462 128.248 51.6661 128.121 51.4179C127.936 51.5263 127.73 51.5952 127.517 51.6206C127.304 51.6459 127.088 51.6271 126.883 51.5652C126.749 51.7424 126.573 51.8845 126.372 51.9794L126.359 51.9609ZM127.012 49.996L127.196 50.3319C127.196 50.3319 127.293 50.539 127.481 50.3319C127.603 50.1767 127.693 49.9982 127.744 49.8073C127.744 49.8073 127.514 49.6785 127.026 49.996H127.012ZM125.516 50.1478C125.286 49.941 124.983 49.8334 124.674 49.8487C124.897 50.0952 125.099 50.3599 125.277 50.6402C125.277 50.6402 125.42 50.2169 125.53 50.1386L125.516 50.1478ZM128.494 52.4487C128.436 52.5002 128.373 52.5449 128.305 52.5822C128.252 52.6371 128.222 52.7105 128.222 52.787C128.222 52.8634 128.252 52.9368 128.305 52.9917C128.305 52.9917 128.696 53.6268 128.36 53.9121C128.516 54.5719 128.516 55.2587 128.36 55.9185C128.241 56.1855 128.165 56.4697 128.135 56.7606L128.342 56.3833H128.471L128.383 56.8434L128.659 56.779C128.781 56.5634 128.863 56.3282 128.903 56.0842C128.903 56.0842 128.839 55.693 129.097 55.624C129.056 55.554 129.035 55.4747 129.035 55.3939C129.035 55.3131 129.056 55.2337 129.097 55.1638C129.097 55.1638 129.451 54.3217 129.06 52.4027C128.98 52.4592 128.886 52.4926 128.789 52.4991C128.691 52.5056 128.594 52.485 128.508 52.4395L128.494 52.4487ZM128.494 51.4778C128.494 51.4778 128.567 51.8689 128.567 51.984L128.659 52.0944H128.811V51.6664L128.494 51.4778ZM135.778 57.1241L136.496 56.664L136.547 56.7606C136.338 56.9047 136.146 57.0731 135.976 57.2622C135.976 57.2622 136.096 57.3542 136.855 57.1103C137.014 57.0617 137.153 56.9633 137.251 56.8296C137.251 56.8296 137.398 56.7284 137.251 56.5029C137.172 56.3949 137.13 56.2641 137.131 56.1302C137.183 56.1461 137.239 56.1473 137.292 56.1335C137.345 56.1196 137.393 56.0914 137.43 56.0519C137.43 56.0519 137.486 56.0519 137.564 55.8863C137.553 55.7998 137.564 55.7118 137.597 55.6311C137.63 55.5504 137.684 55.4798 137.753 55.4261C137.753 55.4261 137.619 52.4303 137.812 52.2048C137.812 52.2048 137.932 51.5882 137.44 51.4778C137.44 51.4778 138.01 50.9486 137.518 50.7323C137.518 50.7323 138.111 50.1754 137.43 49.95C137.43 49.95 138.157 49.4392 137.67 49.002C137.768 48.8758 137.815 48.7176 137.802 48.5583C137.789 48.3991 137.718 48.2504 137.601 48.1415C137.601 48.1415 137.776 47.3868 137.306 47.3085C137.306 47.3085 137.688 46.7793 137.237 46.6459C137.237 46.6459 137.499 45.9188 136.979 45.6933C136.979 45.6933 137.55 45.7255 137.674 46.4802C137.674 46.4802 138.065 46.6689 137.789 47.1613C137.911 47.2675 137.998 47.4072 138.039 47.5628C138.081 47.7185 138.076 47.883 138.024 48.0356C138.124 48.1646 138.187 48.319 138.205 48.4815C138.223 48.644 138.195 48.8082 138.125 48.956C138.125 48.956 138.526 49.5818 137.955 49.9085C138.051 50.0071 138.109 50.1363 138.119 50.2735C138.129 50.4107 138.091 50.5471 138.01 50.6586C138.054 50.7096 138.088 50.7688 138.109 50.8328C138.13 50.8967 138.138 50.9642 138.133 51.0314C138.128 51.0985 138.109 51.164 138.079 51.224C138.048 51.284 138.006 51.3374 137.955 51.3811C138.011 51.4909 138.04 51.6123 138.04 51.7355C138.04 51.8586 138.011 51.98 137.955 52.0898C137.955 52.0898 138.539 52.573 138.986 52.1956C139.082 52.0823 139.147 51.9459 139.174 51.7999C139.202 51.6539 139.191 51.5032 139.142 51.3627C139.142 51.3627 139.423 51.0958 139.267 50.8473C139.309 50.7742 139.325 50.6888 139.313 50.6051C139.3 50.5215 139.259 50.4446 139.197 50.3871C139.278 50.252 139.311 50.0938 139.291 49.9378C139.271 49.7819 139.199 49.6371 139.087 49.5266C139.122 49.3803 139.124 49.228 139.093 49.0808C139.062 48.9336 138.999 48.7951 138.908 48.6753C138.939 48.5387 138.932 48.396 138.886 48.2634C138.84 48.1308 138.759 48.0136 138.65 47.9252C138.65 47.9252 138.806 47.2947 138.424 47.0278C138.432 46.8864 138.406 46.7452 138.347 46.6162C138.289 46.4872 138.2 46.3742 138.088 46.2869C138.092 46.1096 138.045 45.9349 137.952 45.7838C137.859 45.6328 137.724 45.5119 137.564 45.4356C137.546 45.2749 137.482 45.1229 137.377 44.9992C137.273 44.8754 137.135 44.7855 136.979 44.7407C136.946 44.5986 136.87 44.4697 136.763 44.3706C136.655 44.2714 136.521 44.2064 136.377 44.1839C136.384 44.0667 136.35 43.9507 136.28 43.8563C136.21 43.762 136.109 43.6955 135.995 43.6685C135.995 43.6685 135.93 43.1393 135.166 43.1853C135.119 43.0587 135.037 42.9482 134.93 42.8667C134.822 42.7851 134.693 42.736 134.559 42.7252C134.487 42.6451 134.396 42.5832 134.296 42.5448C134.195 42.5064 134.086 42.4925 133.979 42.5043L133.781 42.3662V46.6919C133.781 46.6919 133.781 46.8253 133.689 46.8391C133.689 46.8391 133.652 47.4788 134.066 47.6445C134.008 47.7674 133.991 47.9058 134.018 48.0392C134.044 48.1726 134.113 48.2939 134.214 48.3854C134.214 48.3854 134.089 49.0112 134.448 49.2367C134.448 49.2367 134.269 49.7521 134.596 49.9546C134.551 50.1057 134.55 50.2661 134.591 50.418C134.633 50.57 134.716 50.7074 134.83 50.8151C134.83 50.8151 134.83 51.3305 135.268 51.3995C135.268 51.3995 135.548 51.9793 136.018 51.8597C136.018 51.8597 136.547 52.2186 136.142 55.3433C136.027 55.3974 135.936 55.4908 135.885 55.6064C135.833 55.7221 135.825 55.8524 135.861 55.9737C135.861 55.9737 135.585 56.1394 135.433 56.8388H135.521L136.174 56.2682C136.112 56.1616 136.091 56.0356 136.117 55.9148C136.143 55.794 136.212 55.6871 136.312 55.6148C136.351 55.3924 136.423 55.177 136.524 54.9751C136.694 54.0478 136.702 53.098 136.547 52.168C136.476 52.0703 136.432 51.9563 136.418 51.8367C136.224 51.7761 136.06 51.6447 135.958 51.4686C135.798 51.4521 135.65 51.3806 135.537 51.2664C135.425 51.1522 135.355 51.0024 135.341 50.8427C134.996 50.6816 135.028 50.2123 135.028 50.2123C134.568 49.9546 134.83 49.3517 134.83 49.3517C134.458 49.1493 134.559 48.4636 134.559 48.4636C134.191 48.2289 134.389 47.7273 134.389 47.7273C134.099 47.5939 134.214 47.0969 134.214 47.0969C133.832 46.6965 134.154 46.043 134.154 46.043C134.129 46.2307 134.159 46.4216 134.241 46.5924C134.323 46.7631 134.452 46.9064 134.614 47.0048C134.407 47.3407 134.761 47.6583 134.761 47.6583C134.527 48.0816 135.001 48.3669 135.001 48.3669C134.938 48.5226 134.924 48.6934 134.959 48.8574C134.994 49.0213 135.078 49.171 135.199 49.2873C134.945 49.8579 135.419 50.0098 135.419 50.0098C135.235 50.4285 135.737 50.6494 135.737 50.6494C135.585 51.1694 136.257 51.1832 136.257 51.1832C136.142 51.487 136.717 51.8183 136.717 51.8183C136.666 51.8401 136.612 51.854 136.556 51.8597C136.67 51.986 136.825 52.0676 136.993 52.0898C137.079 53.0604 137.079 54.0367 136.993 55.0073C136.993 55.0073 136.883 55.4675 136.846 55.5503C136.828 55.6167 136.828 55.6865 136.846 55.7528C136.814 55.8092 136.769 55.857 136.714 55.8922C136.66 55.9274 136.598 55.9491 136.533 55.9553C136.474 55.9961 136.425 56.0487 136.388 56.1097C136.35 56.1707 136.326 56.2388 136.317 56.3096L135.778 57.1241ZM125.654 50.585L125.792 50.7231C125.917 51.0222 125.539 51.0498 125.539 51.0498C125.355 51.0866 125.369 51.2983 125.567 51.3351H125.59C125.637 51.3397 125.681 51.3571 125.719 51.3856C125.756 51.414 125.785 51.4523 125.802 51.4962C125.871 51.6526 125.677 51.8137 125.677 51.8137C125.649 51.8638 125.638 51.9222 125.648 51.9791C125.657 52.036 125.685 52.088 125.728 52.1266C125.811 52.191 125.917 52.053 125.917 52.053V51.7769C125.917 51.5008 126.22 51.533 126.22 51.533C126.351 51.5494 126.482 51.5201 126.593 51.4501C126.386 51.3111 126.212 51.129 126.082 50.9163L125.806 50.4009L125.654 50.585Z" fill="#CC0011"/>
<path d="M128.254 30.1399C128.874 30.189 129.495 30.0546 130.04 29.7534C130.04 29.7534 131.466 28.902 132.658 29.7534C133.098 29.513 133.591 29.3848 134.093 29.38C134.594 29.3752 135.089 29.4939 135.534 29.7258C135.534 29.7258 136.772 30.3562 137.623 30.1859V30.301L138.581 30.3838V31.1615H139.114V32.5973H138.571V32.947H139.114V34.3874H138.571V35.0178H139.114V36.3984H138.571V36.9736H139.114V38.3955H138.571V38.8557H133.463C133.227 38.9662 132.97 39.0235 132.709 39.0235C132.448 39.0235 132.19 38.9662 131.954 38.8557H127.136V38.2529L126.588 38.2114L126.818 38.3541L126.358 38.8143L125.562 38.124L125.176 38.0964C125.176 38.0964 124.844 37.9077 125.176 37.6638L125.548 37.6178L126.326 36.9321L126.86 37.3923L126.584 37.4245V37.581L127.118 37.5074V36.2281L126.542 36.1729L126.786 36.3431L126.326 36.8355L125.562 36.067H125.217C125.217 36.067 124.83 35.8369 125.217 35.6068L125.576 35.5792L126.34 34.8751L126.855 35.3353L126.584 35.478L127.145 35.4504V34.1389L126.482 34.033L126.786 34.2079L126.326 34.6681L125.562 34.033L125.189 34.0054C125.189 34.0054 124.83 33.8167 125.189 33.5452H125.548L126.326 32.8136L126.828 33.2737L126.469 33.444L127.131 33.3888V32.1187L126.556 32.0773L126.841 32.1923L126.326 32.7077L125.65 32.0497H125.263C125.263 32.0497 124.803 31.8978 125.263 31.5895L125.484 31.5573L126.354 30.798L126.837 31.2581L126.478 31.4744L127.141 31.4284V30.4022L128.263 30.3378L128.254 30.1399ZM127.67 38.009L128.227 37.4338V30.8578L127.651 30.9038L127.67 38.009ZM131.839 38.3265L132.354 37.2589C129.165 37.963 128.558 37.7513 128.558 37.7513L127.996 38.3403L131.839 38.3265ZM132.69 37.65L132.258 38.5106C132.555 38.6158 132.88 38.6158 133.178 38.5106L132.69 37.65ZM132.962 37.2313L133.578 38.3403H137.752L137.131 37.7927C135.974 37.8006 134.821 37.6457 133.707 37.3325C133.461 37.2914 133.212 37.2653 132.962 37.2543V37.2313ZM137.637 37.6178L138.038 37.9814V30.9038L137.637 30.8578V37.6178ZM128.705 37.3187C129.351 37.3152 129.996 37.2474 130.629 37.1162C131.609 36.9322 132.442 36.7849 132.442 36.7849V30.6001L132.672 30.3286L132.902 30.6001V36.7573C133.619 36.8429 134.331 36.9719 135.033 37.1438C135.737 37.2954 136.457 37.3588 137.177 37.3325V30.6875C136.533 30.6198 135.908 30.4292 135.336 30.1261C134.918 29.9305 134.458 29.8415 133.997 29.8672C133.536 29.8929 133.089 30.0324 132.695 30.2734C132.355 30.0182 131.947 29.8701 131.522 29.848C131.097 29.8259 130.676 29.9307 130.311 30.1491C129.82 30.4285 129.27 30.5863 128.705 30.6093V37.3187Z" fill="#CC0011"/>
<path d="M79.1707 114.603H76.833L77.0033 114.051H79.3364L79.1707 114.603Z" fill="#CC0011"/>
<path d="M26.6786 113.411H25.9239C25.5513 113.379 25.1809 113.493 24.8919 113.731C24.6029 113.968 24.4184 114.309 24.3777 114.681H24.1016L24.3593 113.07C25.2796 113.07 26.2 113.098 27.1203 113.098C28.0407 113.098 28.9611 113.098 29.8814 113.07L29.6145 114.626H29.3384C29.3623 114.473 29.3746 114.32 29.3752 114.166C29.3752 113.54 29.0439 113.392 28.4549 113.392H27.5069L26.5589 118.39C26.5267 118.542 26.5051 118.695 26.4945 118.85C26.4945 119.246 26.7614 119.338 27.0375 119.338H27.2308L27.1848 119.614C26.8166 119.614 26.384 119.586 25.9055 119.586C25.4269 119.586 25.1232 119.586 24.8286 119.614L24.8931 119.338H24.9667C25.5373 119.338 25.6017 119.154 25.7858 118.187L26.6786 113.411Z" fill="#CC0011" stroke="#CC0011" stroke-width="0.2"/>
<path d="M32.0511 118.583C31.5449 119.153 31.0295 119.742 30.2104 119.742C30.0477 119.738 29.8877 119.7 29.7405 119.631C29.5932 119.562 29.4618 119.463 29.3546 119.341C29.2473 119.219 29.1666 119.075 29.1175 118.92C29.0684 118.765 29.0519 118.602 29.0691 118.44C29.0691 117.45 30.0723 115.417 31.5909 115.417C31.7071 115.408 31.8238 115.423 31.934 115.461C32.0441 115.499 32.1454 115.559 32.2315 115.637C32.3177 115.715 32.387 115.811 32.4351 115.917C32.4831 116.023 32.5091 116.138 32.5112 116.254C32.5112 116.871 31.9038 117.708 30.376 117.708C30.2127 117.71 30.0494 117.698 29.8882 117.671C29.8127 117.881 29.7693 118.102 29.7594 118.325C29.7594 118.785 29.9619 119.36 30.4589 119.36C30.8638 119.36 31.3424 118.923 31.8394 118.38L32.0511 118.583ZM31.8118 116.153C31.8118 115.909 31.7013 115.729 31.4252 115.729C30.7442 115.729 30.1183 116.852 29.9895 117.368C30.1207 117.385 30.2529 117.394 30.3852 117.395C30.7348 117.402 31.0745 117.279 31.3382 117.049C31.6019 116.82 31.7707 116.5 31.8118 116.153Z" fill="#CC0011" stroke="#CC0011" stroke-width="0.2"/>
<path d="M36.947 114.219C36.901 113.547 36.7906 113.345 36.2015 113.345H36.0635L36.1279 113.069C36.3488 113.069 36.7537 113.096 37.352 113.096C37.8122 113.096 38.1895 113.096 38.4288 113.069L38.3736 113.345H38.2079C37.8766 113.345 37.7201 113.446 37.7201 113.768C37.7201 113.934 37.7201 114.067 37.7201 114.191L38.0238 118.471L40.8217 112.848H41.0794L41.3923 118.563L43.7485 114.527C43.9391 114.267 44.0767 113.971 44.1534 113.658C44.1534 113.418 43.9601 113.345 43.6472 113.345H43.5L43.5552 113.069C43.7761 113.069 44.1718 113.096 44.7609 113.096C45.3499 113.096 45.626 113.096 45.7825 113.069L45.7272 113.345C45.5162 113.322 45.3033 113.364 45.1163 113.464C44.9292 113.564 44.7765 113.718 44.678 113.906L40.9322 119.741H40.6561L40.4306 114.642L37.6419 119.741H37.3658L36.947 114.219Z" fill="#CC0011" stroke="#CC0011" stroke-width="0.2"/>
<path d="M46.952 113.471C46.9844 113.341 47.0059 113.209 47.0164 113.076C47.0158 113.043 47.0086 113.01 46.9953 112.98C46.9819 112.95 46.9626 112.923 46.9385 112.901C46.9144 112.879 46.8861 112.861 46.8552 112.85C46.8243 112.839 46.7915 112.834 46.7587 112.836C46.6153 112.839 46.473 112.861 46.3353 112.901L46.3998 112.615L47.9183 112.266L46.7863 117.42C47.2465 116.656 48.1392 115.395 48.9399 115.395C49.0171 115.386 49.0952 115.394 49.169 115.418C49.2429 115.442 49.3107 115.482 49.3682 115.534C49.4256 115.586 49.4713 115.65 49.5022 115.721C49.5331 115.792 49.5485 115.869 49.5474 115.947C49.5415 116.103 49.5168 116.257 49.4737 116.407L48.9399 118.57C48.9133 118.679 48.8949 118.79 48.8847 118.901C48.8809 118.93 48.8838 118.959 48.8931 118.987C48.9024 119.014 48.9179 119.039 48.9384 119.059C48.9588 119.08 48.9837 119.095 49.0111 119.105C49.0385 119.114 49.0677 119.117 49.0964 119.113C49.3633 119.113 49.5842 118.773 49.6854 118.506L49.9339 118.579C49.8511 118.846 49.3173 119.702 48.7191 119.702C48.6388 119.701 48.5596 119.684 48.4865 119.651C48.4134 119.617 48.348 119.57 48.2943 119.51C48.2407 119.45 48.2 119.38 48.1749 119.304C48.1498 119.228 48.1408 119.147 48.1484 119.067C48.1573 118.896 48.1851 118.726 48.2313 118.561L48.7559 116.499C48.784 116.397 48.8025 116.292 48.8111 116.186C48.8138 116.157 48.8102 116.128 48.8006 116.101C48.7911 116.074 48.7757 116.049 48.7557 116.028C48.7356 116.007 48.7112 115.99 48.6843 115.98C48.6573 115.969 48.6284 115.964 48.5994 115.965C48.1116 115.965 47.3937 116.941 47.1268 117.346C46.6788 118.002 46.3948 118.757 46.2985 119.546L45.5898 119.693L46.952 113.471Z" fill="#CC0011" stroke="#CC0011" stroke-width="0.2"/>
<path d="M55.4238 118.563C55.1384 118.986 54.623 119.741 54.0432 119.741C53.6935 119.741 53.6107 119.474 53.6107 119.207C53.6274 118.86 53.6767 118.514 53.7579 118.176L53.9052 117.55C53.5186 118.305 52.6075 119.759 51.6043 119.759C50.9968 119.759 50.7852 119.207 50.7852 118.747C50.7852 117.744 51.8896 115.434 54.0524 115.434C54.2733 115.434 54.5678 115.466 54.7243 115.466C54.8354 115.464 54.9462 115.453 55.0556 115.434L54.4206 118.434C54.3836 118.585 54.362 118.739 54.3561 118.894C54.3528 118.922 54.3556 118.951 54.3644 118.978C54.3731 119.005 54.3876 119.03 54.4068 119.051C54.426 119.072 54.4495 119.088 54.4757 119.1C54.5019 119.111 54.5302 119.116 54.5586 119.115C54.7519 119.115 55.0188 118.738 55.1937 118.508L55.4238 118.563ZM51.8896 119.299C52.6443 119.299 54.1905 116.998 54.2457 115.802C54.1403 115.776 54.0321 115.764 53.9236 115.765C53.5713 115.74 53.2196 115.82 52.9121 115.993C52.6045 116.167 52.3546 116.426 52.1933 116.74C51.8096 117.318 51.5755 117.982 51.5122 118.673C51.5122 118.959 51.5675 119.299 51.8896 119.299Z" fill="#CC0011" stroke="#CC0011" stroke-width="0.2"/>
<path d="M57.0948 116.75C57.1445 116.579 57.1784 116.403 57.1961 116.225C57.1993 116.203 57.1978 116.18 57.1914 116.158C57.1851 116.136 57.1742 116.115 57.1594 116.098C57.1446 116.081 57.1263 116.067 57.1056 116.057C57.085 116.047 57.0625 116.042 57.0396 116.041C56.8371 116.041 56.607 116.29 56.2665 116.667L56.0732 116.501C56.1101 116.446 56.9108 115.415 57.5366 115.415C57.8311 115.415 57.9324 115.646 57.9324 115.94C57.8813 116.368 57.7793 116.788 57.6286 117.192C57.7299 116.989 57.7575 116.925 57.8403 116.787C58.052 116.419 58.6318 115.406 59.543 115.406C59.6117 115.407 59.6799 115.418 59.7455 115.438L59.5982 116.281C59.4803 116.237 59.3556 116.216 59.2301 116.216C58.5214 116.216 57.9876 116.952 57.8495 117.229C57.4921 117.976 57.2382 118.769 57.0948 119.585L56.3586 119.732L57.0948 116.75Z" fill="#CC0011" stroke="#CC0011" stroke-width="0.2"/>
<path d="M62.8909 118.583C62.3847 119.153 61.8693 119.742 61.0502 119.742C60.8876 119.738 60.7276 119.7 60.5803 119.631C60.433 119.562 60.3016 119.463 60.1944 119.341C60.0872 119.219 60.0065 119.075 59.9573 118.92C59.9082 118.765 59.8917 118.602 59.909 118.44C59.909 117.45 60.9121 115.417 62.4307 115.417C62.5469 115.408 62.6636 115.423 62.7738 115.461C62.884 115.499 62.9852 115.559 63.0714 115.637C63.1575 115.715 63.2268 115.811 63.2749 115.917C63.323 116.023 63.3489 116.138 63.3511 116.254C63.3511 116.871 62.7437 117.708 61.2159 117.708C61.0525 117.71 60.8893 117.698 60.7281 117.671C60.6525 117.881 60.6091 118.102 60.5992 118.325C60.5992 118.785 60.8017 119.36 61.2987 119.36C61.7037 119.36 62.1822 118.923 62.6792 118.38L62.8909 118.583ZM62.6516 116.153C62.6516 115.909 62.5412 115.729 62.2651 115.729C61.584 115.729 60.9582 116.852 60.8293 117.368C60.9606 117.385 61.0927 117.394 61.2251 117.395C61.5747 117.402 61.9144 117.279 62.1781 117.049C62.4417 116.82 62.6105 116.5 62.6516 116.153Z" fill="#CC0011" stroke="#CC0011" stroke-width="0.2"/>
<path d="M67.7859 114.219C67.7399 113.547 67.6294 113.345 67.0404 113.345H66.9023L66.9668 113.069C67.1877 113.069 67.5926 113.096 68.1908 113.096C68.651 113.096 69.0284 113.096 69.2677 113.069L69.2124 113.345H69.0468C68.7154 113.345 68.559 113.446 68.559 113.768C68.559 113.934 68.559 114.067 68.559 114.191L68.8627 118.471L71.7204 112.848H71.9781L72.291 118.563L74.6471 114.527C74.8377 114.267 74.9753 113.971 75.0521 113.658C75.0521 113.418 74.8588 113.345 74.5459 113.345H74.3987L74.4539 113.069C74.6748 113.069 75.0705 113.096 75.6595 113.096C76.2486 113.096 76.5247 113.096 76.6811 113.069L76.6259 113.345C76.4149 113.322 76.202 113.364 76.0149 113.464C75.8278 113.564 75.6752 113.718 75.5767 113.906L71.8309 119.741H71.5548L71.2878 114.642L68.4992 119.741H68.2231L67.7859 114.219Z" fill="#CC0011" stroke="#CC0011" stroke-width="0.2"/>
<path d="M79.8085 118.563C79.5232 118.986 79.0078 119.741 78.428 119.741C78.0783 119.741 77.9954 119.474 77.9954 119.207C78.0122 118.86 78.0615 118.514 78.1427 118.176L78.2899 117.55C77.9034 118.305 76.9922 119.759 75.989 119.759C75.3816 119.759 75.1699 119.207 75.1699 118.747C75.1699 117.744 76.2744 115.434 78.4372 115.434C78.6581 115.434 78.9526 115.466 79.1091 115.466C79.2202 115.464 79.331 115.453 79.4404 115.434L78.8053 118.434C78.7684 118.585 78.7468 118.739 78.7409 118.894C78.7376 118.922 78.7404 118.951 78.7491 118.978C78.7579 119.005 78.7724 119.03 78.7916 119.051C78.8108 119.072 78.8343 119.088 78.8605 119.1C78.8867 119.111 78.915 119.116 78.9434 119.115C79.1367 119.115 79.4036 118.738 79.5784 118.508L79.8085 118.563ZM76.2744 119.299C77.0291 119.299 78.5753 116.998 78.6305 115.802C78.5251 115.776 78.4168 115.764 78.3083 115.765C77.9561 115.74 77.6044 115.82 77.2968 115.993C76.9893 116.167 76.7393 116.426 76.5781 116.74C76.1943 117.318 75.9603 117.982 75.897 118.673C75.897 118.959 75.9522 119.299 76.2744 119.299Z" fill="#CC0011" stroke="#CC0011" stroke-width="0.2"/>
<path d="M80.4639 116.53C80.5743 116.369 81.283 115.417 81.7708 115.417C82.0285 115.417 82.1757 115.583 82.1757 115.969C82.1287 116.508 82.0301 117.041 81.8812 117.561C82.1297 117.101 83.0869 115.398 83.9704 115.398C84.4674 115.398 84.6423 115.693 84.6423 115.978C84.6423 116.466 83.9704 118.38 83.9704 118.831C83.9671 118.861 83.9702 118.891 83.9794 118.919C83.9886 118.947 84.0037 118.973 84.0238 118.995C84.0439 119.016 84.0684 119.034 84.0957 119.045C84.123 119.057 84.1525 119.062 84.1821 119.061C84.3202 119.061 84.449 119.015 84.7067 118.693L84.9368 118.408L85.1301 118.583C84.6699 119.154 84.2097 119.687 83.7035 119.687C83.3722 119.687 83.1973 119.512 83.1973 119.255C83.1973 118.758 83.906 116.466 83.906 116.107C83.906 116.076 83.8998 116.045 83.8877 116.017C83.8755 115.988 83.8577 115.963 83.8354 115.941C83.813 115.92 83.7866 115.903 83.7576 115.892C83.7286 115.881 83.6977 115.876 83.6667 115.877C83.3538 115.877 82.7924 116.53 82.2862 117.313C81.8658 118.008 81.5786 118.776 81.4394 119.577L80.7032 119.724L81.2738 117.193C81.358 116.883 81.4135 116.566 81.4394 116.245C81.4394 116.126 81.3934 116.033 81.2922 116.033C81.1081 116.033 80.832 116.374 80.6295 116.65L80.4639 116.53Z" fill="#CC0011" stroke="#CC0011" stroke-width="0.2"/>
<path d="M90.4257 118.563C90.1404 118.986 89.625 119.741 89.0452 119.741C88.6954 119.741 88.6126 119.474 88.6126 119.207C88.6294 118.86 88.6787 118.514 88.7599 118.176L88.9071 117.55C88.5206 118.305 87.6094 119.759 86.6062 119.759C85.9988 119.759 85.7871 119.207 85.7871 118.747C85.7871 117.744 86.8915 115.434 89.0544 115.434C89.2753 115.434 89.5698 115.466 89.7262 115.466C89.8374 115.464 89.9482 115.453 90.0576 115.434L89.4225 118.434C89.3856 118.585 89.364 118.739 89.3581 118.894C89.3548 118.922 89.3576 118.951 89.3663 118.978C89.3751 119.005 89.3895 119.03 89.4088 119.051C89.428 119.072 89.4515 119.088 89.4777 119.1C89.5039 119.111 89.5321 119.116 89.5606 119.115C89.7538 119.115 90.0207 118.738 90.1956 118.508L90.4257 118.563ZM86.8915 119.299C87.6462 119.299 89.1924 116.998 89.2476 115.802C89.1423 115.776 89.034 115.764 88.9255 115.765C88.5733 115.74 88.2216 115.82 87.914 115.993C87.6064 116.167 87.3565 116.426 87.1953 116.74C86.8115 117.318 86.5774 117.982 86.5142 118.673C86.5142 118.959 86.5694 119.299 86.9053 119.299H86.8915Z" fill="#CC0011" stroke="#CC0011" stroke-width="0.2"/>
<path d="M91.0742 116.53C91.1847 116.369 91.8933 115.417 92.3811 115.417C92.6388 115.417 92.7861 115.583 92.7861 115.969C92.7391 116.508 92.6405 117.041 92.4916 117.561C92.7401 117.101 93.6972 115.398 94.5808 115.398C95.0778 115.398 95.2526 115.693 95.2526 115.978C95.2526 116.466 94.5808 118.38 94.5808 118.831C94.5775 118.861 94.5805 118.891 94.5897 118.919C94.599 118.947 94.6141 118.973 94.6342 118.995C94.6542 119.016 94.6788 119.034 94.7061 119.045C94.7334 119.057 94.7628 119.062 94.7925 119.061C94.9305 119.061 95.0594 119.015 95.3171 118.693L95.5472 118.408L95.7404 118.583C95.2803 119.154 94.8201 119.687 94.3139 119.687C93.9825 119.687 93.8077 119.512 93.8077 119.255C93.8077 118.758 94.5164 116.466 94.5164 116.107C94.5164 116.076 94.5101 116.045 94.498 116.017C94.4859 115.988 94.4681 115.963 94.4457 115.941C94.4234 115.92 94.3969 115.903 94.3679 115.892C94.339 115.881 94.3081 115.876 94.2771 115.877C93.9641 115.877 93.4027 116.53 92.8965 117.313C92.4761 118.008 92.189 118.776 92.0498 119.577L91.3135 119.724L91.8841 117.193C91.9684 116.883 92.0239 116.566 92.0498 116.245C92.0498 116.126 92.0038 116.033 91.9025 116.033C91.7185 116.033 91.4424 116.374 91.2399 116.65L91.0742 116.53Z" fill="#CC0011" stroke="#CC0011" stroke-width="0.2"/>
<path d="M100.485 114.945C100.494 115.013 100.494 115.081 100.485 115.148C100.485 115.608 100.237 115.866 99.6755 116.068C99.7309 116.215 99.759 116.371 99.7584 116.528C99.7584 118.185 97.347 118.259 97.347 118.829C97.347 119.4 99.832 119.437 99.832 120.606C99.832 121.176 99.2246 121.71 97.9085 121.71C96.6844 121.71 95.9297 121.25 95.9297 120.67C95.9297 120.09 96.4635 119.777 97.0065 119.621C96.6936 119.473 96.5003 119.299 96.5003 119.087C96.5003 118.673 97.0065 118.433 97.7336 118.167C97.6054 118.167 97.4786 118.141 97.3611 118.089C97.2437 118.038 97.1383 117.963 97.0517 117.868C96.965 117.774 96.8991 117.662 96.858 117.541C96.8169 117.42 96.8017 117.291 96.8132 117.163C96.8439 116.716 97.0398 116.295 97.3629 115.984C97.6861 115.673 98.1134 115.493 98.5619 115.479C98.7513 115.468 98.9408 115.501 99.1151 115.576C99.2894 115.651 99.4435 115.766 99.5651 115.912C99.7032 115.884 99.8044 115.81 99.8044 115.672C99.7786 115.506 99.6976 115.354 99.5743 115.24L100.485 114.945ZM97.4897 119.796C97.1952 119.832 96.5693 120.049 96.5693 120.587C96.5693 120.969 96.9375 121.388 97.9499 121.388C98.6586 121.388 99.1371 121.185 99.1371 120.762C99.1509 120.265 98.2674 119.98 97.4897 119.796ZM98.5573 115.691C97.9959 115.691 97.4989 116.501 97.4989 117.228C97.4989 117.688 97.6646 117.9 98.0235 117.9C98.7046 117.9 98.9899 116.952 98.9899 116.372C99.0037 115.884 98.8104 115.691 98.5711 115.691H98.5573Z" fill="#CC0011" stroke="#CC0011" stroke-width="0.2"/>
<path d="M105.162 118.563C104.877 118.986 104.361 119.741 103.782 119.741C103.432 119.741 103.349 119.474 103.349 119.207C103.366 118.86 103.415 118.514 103.496 118.176L103.643 117.55C103.257 118.305 102.346 119.759 101.343 119.759C100.735 119.759 100.523 119.207 100.523 118.747C100.523 117.744 101.628 115.434 103.791 115.434C104.012 115.434 104.306 115.466 104.463 115.466C104.574 115.464 104.685 115.453 104.794 115.434L104.159 118.434C104.122 118.585 104.1 118.739 104.094 118.894C104.091 118.922 104.094 118.951 104.103 118.978C104.111 119.005 104.126 119.03 104.145 119.051C104.164 119.072 104.188 119.088 104.214 119.1C104.24 119.111 104.268 119.116 104.297 119.115C104.49 119.115 104.757 118.738 104.932 118.508L105.162 118.563ZM101.628 119.299C102.383 119.299 103.929 116.998 103.984 115.802C103.879 115.776 103.77 115.764 103.662 115.765C103.31 115.74 102.958 115.82 102.65 115.993C102.343 116.167 102.093 116.426 101.932 116.74C101.548 117.318 101.314 117.982 101.251 118.673C101.251 118.959 101.306 119.299 101.632 119.299H101.628Z" fill="#CC0011" stroke="#CC0011" stroke-width="0.2"/>
<path d="M111.118 115.416C111.306 115.398 111.496 115.422 111.674 115.484C111.853 115.546 112.015 115.647 112.152 115.778C112.288 115.909 112.394 116.067 112.464 116.243C112.533 116.419 112.564 116.608 112.554 116.796C112.554 118.03 111.587 119.732 110.17 119.732C109.974 119.725 109.782 119.678 109.605 119.594C109.428 119.509 109.27 119.39 109.141 119.243C109.012 119.095 108.914 118.923 108.853 118.737C108.793 118.55 108.771 118.354 108.789 118.158C108.789 116.686 110.032 115.416 111.118 115.416ZM111.081 115.692C110.133 115.692 109.526 117.321 109.526 118.352C109.526 119.134 109.747 119.465 110.198 119.465C111.293 119.465 111.817 117.201 111.817 116.598C111.817 115.812 111.394 115.692 111.081 115.692Z" fill="#CC0011" stroke="#CC0011" stroke-width="0.2"/>
<path d="M117.191 114.219C117.145 113.547 117.035 113.345 116.446 113.345H116.308L116.372 113.069C116.593 113.069 116.998 113.096 117.596 113.096C118.056 113.096 118.434 113.096 118.673 113.069L118.618 113.345H118.452C118.121 113.345 117.964 113.446 117.964 113.768C117.964 113.934 117.964 114.067 117.964 114.191L118.268 118.471L121.066 112.848H121.324L121.636 118.563L123.993 114.527C124.183 114.267 124.321 113.971 124.398 113.658C124.398 113.418 124.204 113.345 123.891 113.345H123.744L123.799 113.069C124.02 113.069 124.416 113.096 125.005 113.096C125.594 113.096 125.87 113.096 126.027 113.069L125.971 113.345C125.76 113.322 125.547 113.364 125.36 113.464C125.173 113.564 125.021 113.718 124.922 113.906L121.176 119.741H120.96L120.693 114.642L117.904 119.741H117.628L117.191 114.219Z" fill="#CC0011" stroke="#CC0011" stroke-width="0.2"/>
<path d="M129.214 118.563C128.928 118.986 128.413 119.741 127.833 119.741C127.484 119.741 127.401 119.474 127.401 119.207C127.417 118.86 127.467 118.514 127.548 118.176L127.695 117.55C127.309 118.305 126.398 119.759 125.394 119.759C124.787 119.759 124.575 119.207 124.575 118.747C124.575 117.744 125.68 115.434 127.842 115.434C128.063 115.434 128.358 115.466 128.514 115.466C128.625 115.464 128.736 115.453 128.846 115.434L128.211 118.434C128.174 118.585 128.152 118.739 128.146 118.894C128.143 118.922 128.146 118.951 128.154 118.978C128.163 119.005 128.178 119.03 128.197 119.051C128.216 119.072 128.24 119.088 128.266 119.1C128.292 119.111 128.32 119.116 128.349 119.115C128.542 119.115 128.809 118.738 128.984 118.508L129.214 118.563ZM125.68 119.299C126.434 119.299 127.981 116.998 128.036 115.802C127.93 115.776 127.822 115.764 127.714 115.765C127.361 115.74 127.01 115.82 126.702 115.993C126.395 116.167 126.145 116.426 125.983 116.74C125.6 117.318 125.366 117.982 125.302 118.673C125.302 118.959 125.357 119.299 125.68 119.299Z" fill="#CC0011" stroke="#CC0011" stroke-width="0.2"/>
<path d="M130.852 116.6C130.893 116.449 130.924 116.295 130.944 116.14C130.944 116.057 130.907 115.955 130.796 115.955C130.539 115.955 130.244 116.379 130.078 116.637L129.876 116.489L129.913 116.425C130.097 116.103 130.658 115.403 131.155 115.403C131.224 115.399 131.292 115.41 131.356 115.434C131.42 115.457 131.479 115.494 131.528 115.542C131.577 115.589 131.616 115.647 131.642 115.71C131.668 115.773 131.681 115.841 131.68 115.909C131.658 116.093 131.621 116.275 131.569 116.452L131.109 118.56C131.078 118.678 131.056 118.798 131.045 118.919C131.045 119.094 131.146 119.177 131.257 119.177C131.477 119.177 131.634 118.965 131.717 118.799L131.882 118.532L132.094 118.657C131.864 119.039 131.45 119.729 130.852 119.729C130.776 119.726 130.702 119.708 130.633 119.675C130.565 119.642 130.504 119.596 130.455 119.538C130.406 119.481 130.369 119.413 130.347 119.341C130.325 119.268 130.318 119.192 130.327 119.117C130.329 118.919 130.357 118.723 130.41 118.532L130.852 116.6ZM131.689 113.448C131.736 113.442 131.783 113.447 131.828 113.462C131.873 113.477 131.914 113.501 131.948 113.534C131.982 113.566 132.009 113.606 132.026 113.65C132.044 113.694 132.051 113.741 132.048 113.788C132.054 113.952 131.996 114.112 131.886 114.234C131.776 114.357 131.623 114.431 131.459 114.441C131.414 114.442 131.369 114.432 131.328 114.415C131.286 114.397 131.249 114.371 131.218 114.338C131.187 114.305 131.163 114.267 131.147 114.224C131.132 114.182 131.125 114.137 131.128 114.092C131.118 113.932 131.171 113.775 131.276 113.654C131.381 113.534 131.53 113.459 131.689 113.448Z" fill="#CC0011" stroke="#CC0011" stroke-width="0.2"/>
<path d="M133.847 115.893H132.927L133.276 115.506H133.93L134.105 114.668L134.832 114.484L134.629 115.506H135.596L135.55 115.893H134.537L133.994 118.387C133.941 118.586 133.901 118.789 133.875 118.994C133.872 119.023 133.874 119.052 133.883 119.079C133.892 119.107 133.906 119.132 133.925 119.154C133.944 119.176 133.968 119.193 133.994 119.205C134.02 119.217 134.048 119.224 134.077 119.224C134.353 119.224 134.685 118.672 134.813 118.46L135.044 118.58C134.721 119.151 134.206 119.74 133.691 119.74C133.369 119.74 133.175 119.51 133.175 119.141C133.188 118.874 133.228 118.609 133.295 118.35L133.847 115.893Z" fill="#CC0011" stroke="#CC0011" stroke-width="0.2"/>
<path d="M140.546 118.563C140.261 118.986 139.745 119.741 139.165 119.741C138.816 119.741 138.733 119.474 138.733 119.207C138.749 118.86 138.799 118.514 138.88 118.176L139.027 117.55C138.641 118.305 137.73 119.759 136.726 119.759C136.119 119.759 135.907 119.207 135.907 118.747C135.907 117.744 137.012 115.434 139.174 115.434C139.395 115.434 139.69 115.466 139.846 115.466C139.957 115.464 140.068 115.453 140.178 115.434L139.543 118.434C139.506 118.585 139.484 118.739 139.478 118.894C139.475 118.922 139.478 118.951 139.486 118.978C139.495 119.005 139.51 119.03 139.529 119.051C139.548 119.072 139.572 119.088 139.598 119.1C139.624 119.111 139.652 119.116 139.681 119.115C139.874 119.115 140.141 118.738 140.316 118.508L140.546 118.563ZM137.012 119.299C137.766 119.299 139.313 116.998 139.368 115.802C139.262 115.776 139.154 115.764 139.046 115.765C138.693 115.74 138.342 115.82 138.034 115.993C137.727 116.167 137.477 116.426 137.315 116.74C136.932 117.318 136.698 117.982 136.634 118.673C136.634 118.959 136.69 119.299 137.012 119.299Z" fill="#CC0011" stroke="#CC0011" stroke-width="0.2"/>
<path d="M142.683 113.471C142.716 113.341 142.737 113.209 142.748 113.076C142.747 113.043 142.74 113.01 142.727 112.98C142.713 112.95 142.694 112.923 142.67 112.901C142.646 112.879 142.618 112.861 142.587 112.85C142.556 112.839 142.523 112.834 142.49 112.836C142.347 112.839 142.204 112.861 142.067 112.901L142.131 112.615L143.65 112.266L142.518 117.42C142.978 116.656 143.871 115.395 144.671 115.395C144.749 115.386 144.827 115.394 144.9 115.418C144.974 115.442 145.042 115.482 145.1 115.534C145.157 115.586 145.203 115.65 145.234 115.721C145.265 115.792 145.28 115.869 145.279 115.947C145.273 116.103 145.248 116.257 145.205 116.407L144.671 118.57C144.645 118.679 144.626 118.79 144.616 118.901C144.612 118.93 144.615 118.959 144.625 118.987C144.634 119.014 144.649 119.039 144.67 119.059C144.69 119.08 144.715 119.095 144.743 119.105C144.77 119.114 144.799 119.117 144.828 119.113C145.095 119.113 145.316 118.773 145.417 118.506L145.665 118.579C145.583 118.846 145.049 119.702 144.45 119.702C144.37 119.701 144.291 119.684 144.218 119.651C144.145 119.617 144.079 119.57 144.026 119.51C143.972 119.45 143.931 119.38 143.906 119.304C143.881 119.228 143.872 119.147 143.88 119.067C143.889 118.896 143.917 118.726 143.963 118.561L144.487 116.499C144.515 116.397 144.534 116.292 144.543 116.186C144.545 116.157 144.542 116.128 144.532 116.101C144.523 116.074 144.507 116.049 144.487 116.028C144.467 116.007 144.443 115.99 144.416 115.98C144.389 115.969 144.36 115.964 144.331 115.965C143.843 115.965 143.125 116.941 142.858 117.346C142.41 118.002 142.126 118.757 142.03 119.546L141.321 119.693L142.683 113.471Z" fill="#CC0011" stroke="#CC0011" stroke-width="0.2"/>
<path d="M151.163 118.563C150.878 118.986 150.362 119.741 149.782 119.741C149.433 119.741 149.35 119.474 149.35 119.207C149.367 118.86 149.416 118.514 149.497 118.176L149.644 117.55C149.258 118.305 148.347 119.759 147.344 119.759C146.736 119.759 146.524 119.207 146.524 118.747C146.524 117.744 147.629 115.434 149.792 115.434C150.013 115.434 150.307 115.466 150.464 115.466C150.575 115.464 150.686 115.453 150.795 115.434L150.16 118.434C150.123 118.585 150.101 118.739 150.095 118.894C150.092 118.922 150.095 118.951 150.104 118.978C150.112 119.005 150.127 119.03 150.146 119.051C150.165 119.072 150.189 119.088 150.215 119.1C150.241 119.111 150.269 119.116 150.298 119.115C150.491 119.115 150.758 118.738 150.933 118.508L151.163 118.563ZM147.629 119.299C148.384 119.299 149.93 116.998 149.985 115.802C149.88 115.776 149.771 115.764 149.663 115.765C149.311 115.74 148.959 115.82 148.651 115.993C148.344 116.167 148.094 116.426 147.933 116.74C147.549 117.318 147.315 117.982 147.252 118.673C147.252 118.959 147.307 119.299 147.652 119.299H147.629Z" fill="#CC0011" stroke="#CC0011" stroke-width="0.2"/>
<path d="M28.3015 125.103H28.1405C28.0024 124.214 27.2523 123.888 26.5115 123.888C25.6923 123.888 24.8962 124.537 24.8962 125.728C24.8962 126.92 25.5589 127.942 26.6265 127.942C26.9823 127.914 27.3256 127.799 27.6253 127.605C27.9251 127.411 28.1717 127.146 28.343 126.833L28.3982 127.56C27.8294 127.984 27.1378 128.21 26.4286 128.204C24.2934 128.204 23.9805 126.548 23.9805 125.876C23.9805 124.877 24.6891 123.648 26.6081 123.648C27.1879 123.668 27.7602 123.785 28.3015 123.994V125.103Z" fill="#CC0011" stroke="#CC0011" stroke-width="0.2"/>
<path d="M29.8486 127.941C30.249 127.941 30.3594 127.785 30.3594 127.44V124.416C30.3594 124.071 30.249 123.924 29.8486 123.919V123.73H30.746H31.6663V123.919C31.266 123.919 31.1555 124.071 31.1555 124.416V125.663H33.4564V124.416C33.4564 124.071 33.3414 123.924 32.941 123.919V123.73H33.8614H34.7818V123.919C34.3814 123.919 34.2664 124.071 34.2664 124.416V127.449C34.2664 127.794 34.3814 127.946 34.7818 127.95V128.134H33.8614H32.941V127.95C33.3414 127.95 33.4564 127.794 33.4564 127.449V125.93H31.1555V127.449C31.1555 127.794 31.266 127.946 31.6663 127.95V128.134H30.746H29.8486V127.941Z" fill="#CC0011" stroke="#CC0011" stroke-width="0.2"/>
<path d="M36.1049 127.941C36.5052 127.941 36.6157 127.785 36.6157 127.44V124.416C36.6157 124.071 36.5052 123.924 36.1049 123.919V123.73C36.3948 123.73 36.6387 123.73 36.8688 123.73C37.2691 123.73 37.6787 123.73 38.0791 123.73C39.1513 123.73 39.4918 124.269 39.4918 124.872C39.4877 125.121 39.401 125.362 39.2453 125.557C39.0896 125.752 38.8736 125.89 38.6313 125.949L39.4044 127.366C39.6805 127.877 39.8323 127.996 40.1821 128.047V128.194C40.09 128.194 39.998 128.194 39.8968 128.194C39.0776 128.194 38.7371 127.909 38.392 127.173L38.1527 126.662C37.895 126.114 37.8076 126.068 37.3934 126.064V127.444C37.3934 127.789 37.5038 127.941 37.9042 127.946V128.13H36.9838H36.0635L36.1049 127.941ZM37.3934 125.847C37.5264 125.876 37.6621 125.892 37.7983 125.893C38.3552 125.893 38.6911 125.64 38.6911 125.042C38.7046 124.899 38.688 124.755 38.6422 124.618C38.5964 124.482 38.5226 124.357 38.4254 124.251C38.3282 124.145 38.2099 124.061 38.0781 124.004C37.9463 123.947 37.804 123.918 37.6603 123.919C37.5716 123.909 37.4821 123.909 37.3934 123.919V125.847Z" fill="#CC0011" stroke="#CC0011" stroke-width="0.2"/>
<path d="M41.4424 127.941C41.8427 127.941 41.9532 127.785 41.9532 127.44V124.416C41.9532 124.071 41.8427 123.924 41.4424 123.919V123.73H42.3397H43.2601V123.919C42.8597 123.919 42.7493 124.071 42.7493 124.416V127.449C42.7493 127.794 42.8597 127.946 43.2601 127.95V128.134H42.3397H41.4424V127.941Z" fill="#CC0011" stroke="#CC0011" stroke-width="0.2"/>
<path d="M44.7266 126.933H44.9659C45.0155 127.214 45.1591 127.47 45.3731 127.659C45.5871 127.848 45.8588 127.959 46.1439 127.973C46.253 127.99 46.3645 127.984 46.4712 127.956C46.5779 127.927 46.6776 127.877 46.7641 127.809C46.8505 127.74 46.9218 127.654 46.9735 127.557C47.0251 127.459 47.056 127.352 47.0643 127.242C47.0643 126.257 44.814 126.321 44.814 124.941C44.814 124.628 44.9935 123.657 46.3694 123.657C46.7559 123.65 47.141 123.705 47.5106 123.818L47.5475 124.908H47.3174C47.3128 124.767 47.2796 124.627 47.2199 124.499C47.1602 124.37 47.0752 124.255 46.97 124.16C46.8647 124.065 46.7414 123.992 46.6073 123.946C46.4733 123.9 46.3313 123.881 46.1899 123.891C46.0945 123.881 45.9979 123.889 45.9058 123.916C45.8137 123.944 45.728 123.989 45.6537 124.05C45.5795 124.111 45.5183 124.186 45.4736 124.271C45.429 124.356 45.4018 124.449 45.3938 124.545C45.3938 125.465 47.6947 125.525 47.6947 126.901C47.6947 127.628 47.1747 128.213 46.1531 128.213C45.6982 128.201 45.2466 128.132 44.8094 128.005L44.7266 126.933Z" fill="#CC0011" stroke="#CC0011" stroke-width="0.2"/>
<path d="M50.1768 127.94C50.5772 127.94 50.6876 127.784 50.6876 127.439V124.038H50.1446C49.6522 124.038 49.3255 124.176 49.2887 124.958H49.0586L49.1 123.734H51.0788C51.7368 123.734 52.3995 123.734 53.0575 123.734L53.0944 124.958H52.8505C52.8137 124.181 52.4869 124.038 51.9899 124.038H51.4699V127.448C51.4699 127.793 51.585 127.945 51.9853 127.95V128.134H51.065H50.1446L50.1768 127.94Z" fill="#CC0011" stroke="#CC0011" stroke-width="0.2"/>
<path d="M58.8367 125.103H58.6756C58.5376 124.214 57.7875 123.888 57.0466 123.888C56.2275 123.888 55.4314 124.537 55.4314 125.728C55.4314 126.92 56.094 127.942 57.1617 127.942C57.5174 127.914 57.8608 127.799 58.1605 127.605C58.4602 127.411 58.7069 127.146 58.8781 126.833L58.9333 127.56C58.3646 127.984 57.673 128.21 56.9638 128.204C54.8285 128.204 54.5156 126.548 54.5156 125.876C54.5156 124.877 55.2243 123.648 57.1432 123.648C57.723 123.668 58.2954 123.785 58.8367 123.994V125.103Z" fill="#CC0011" stroke="#CC0011" stroke-width="0.2"/>
<path d="M60.3975 127.941C60.7978 127.941 60.9083 127.785 60.9083 127.44V124.416C60.9083 124.071 60.7978 123.924 60.3975 123.919V123.73H61.2948H62.2152V123.919C61.8148 123.919 61.7044 124.071 61.7044 124.416V125.663H64.0053V124.416C64.0053 124.071 63.8902 123.924 63.4899 123.919V123.73H64.4102H65.3306V123.919C64.9302 123.919 64.8198 124.071 64.8198 124.416V127.449C64.8198 127.794 64.9302 127.946 65.3306 127.95V128.134H64.4102H63.4899V127.95C63.8902 127.95 64.0053 127.794 64.0053 127.449V125.93H61.7044V127.449C61.7044 127.794 61.8148 127.946 62.2152 127.95V128.134H61.2948H60.3975V127.941Z" fill="#CC0011" stroke="#CC0011" stroke-width="0.2"/>
<path d="M71.448 123.918C71.043 123.918 70.9418 124.07 70.9326 124.415V126.398C70.9326 127.296 70.5414 128.207 69.1885 128.207C68.0472 128.207 67.1729 127.71 67.1729 126.389V124.415C67.1729 124.07 67.0625 123.923 66.6621 123.918V123.729C67.1545 123.729 67.3662 123.729 67.5825 123.729C67.7988 123.729 67.9874 123.729 68.5028 123.729V123.918C68.0979 123.918 67.9874 124.07 67.9874 124.415V126.527C67.9681 126.707 67.9867 126.889 68.0421 127.061C68.0976 127.233 68.1886 127.391 68.3092 127.526C68.4299 127.66 68.5775 127.768 68.7424 127.842C68.9074 127.915 69.086 127.954 69.2667 127.954C70.3389 127.954 70.7209 127.259 70.7209 126.187C70.7209 125.842 70.7209 125.593 70.7209 125.322V124.429C70.7209 124.056 70.6334 123.9 70.1825 123.9V123.711C70.4126 123.711 70.6427 123.711 70.8497 123.711C71.0568 123.711 71.3099 123.711 71.5354 123.711L71.448 123.918Z" fill="#CC0011" stroke="#CC0011" stroke-width="0.2"/>
<path d="M72.7904 127.941C73.1908 127.941 73.3012 127.785 73.3012 127.44V124.416C73.3012 124.071 73.1908 123.924 72.7904 123.919V123.73C73.0804 123.73 73.3288 123.73 73.5543 123.73C73.9547 123.73 74.3642 123.73 74.7646 123.73C75.8368 123.73 76.1773 124.269 76.1773 124.872C76.1735 125.121 76.0875 125.361 75.9326 125.556C75.7778 125.751 75.5629 125.889 75.3214 125.949L76.0899 127.366C76.3706 127.877 76.5179 127.996 76.8676 128.047V128.194C76.7756 128.194 76.6835 128.194 76.5823 128.194C75.7632 128.194 75.4227 127.909 75.0775 127.173L74.8382 126.662C74.5805 126.114 74.4931 126.068 74.0789 126.064V127.444C74.0789 127.789 74.1894 127.941 74.5897 127.946V128.13H73.6694H72.749L72.7904 127.941ZM74.0789 125.847C74.2135 125.877 74.3508 125.892 74.4885 125.893C75.0407 125.893 75.3766 125.64 75.3766 125.042C75.3902 124.899 75.3735 124.755 75.3278 124.618C75.282 124.482 75.2081 124.357 75.1109 124.251C75.0138 124.145 74.8955 124.061 74.7637 124.004C74.6319 123.947 74.4895 123.918 74.3458 123.919C74.2572 123.909 74.1676 123.909 74.0789 123.919V125.847Z" fill="#CC0011" stroke="#CC0011" stroke-width="0.2"/>
<path d="M82.5938 125.103H82.4374C82.2993 124.214 81.5492 123.888 80.8083 123.888C79.9846 123.888 79.1885 124.537 79.1885 125.728C79.1885 126.92 79.8558 127.942 80.9234 127.942C81.2792 127.914 81.6225 127.799 81.9222 127.605C82.2219 127.411 82.4686 127.146 82.6398 126.833L82.6951 127.56C82.1263 127.984 81.4347 128.21 80.7255 128.204C78.5903 128.204 78.2773 126.548 78.2773 125.876C78.2773 124.877 78.986 123.648 80.905 123.648C81.4832 123.668 82.0541 123.785 82.5938 123.994V125.103Z" fill="#CC0011" stroke="#CC0011" stroke-width="0.2"/>
<path d="M84.1445 127.941C84.5495 127.941 84.6599 127.785 84.6599 127.44V124.416C84.6599 124.071 84.5495 123.924 84.1445 123.919V123.73H85.0649H85.9852V123.919C85.5849 123.919 85.4745 124.071 85.4745 124.416V125.663H87.7753V124.416C87.7753 124.071 87.6649 123.924 87.2645 123.919V123.73H88.1849H89.1053V123.919C88.7003 123.919 88.5899 124.071 88.5899 124.416V127.449C88.5899 127.794 88.7003 127.946 89.1053 127.95V128.134H88.1849H87.2645V127.95C87.6649 127.95 87.7753 127.794 87.7753 127.449V125.93H85.4745V127.449C85.4745 127.794 85.5849 127.946 85.9852 127.95V128.134H85.0649H84.1445V127.941Z" fill="#CC0011" stroke="#CC0011" stroke-width="0.2"/>
<path d="M93.1836 127.941C93.5839 127.941 93.699 127.785 93.699 127.44V124.416C93.699 124.071 93.5839 123.924 93.1836 123.919V123.73C93.4367 123.73 93.6806 123.73 93.8508 123.73C94.0211 123.73 94.1638 123.73 94.3432 123.73L97.2516 126.984V124.448C97.2516 124.076 97.1641 123.919 96.7224 123.919V123.73C96.9479 123.73 97.1825 123.73 97.385 123.73C97.5875 123.73 97.8452 123.73 98.0707 123.73V123.919C97.6703 123.919 97.5599 124.071 97.5599 124.416V128.167H97.3114L93.9751 124.485L94.0257 127.384C94.0257 127.844 94.1454 127.904 94.5365 127.941V128.125C94.3524 128.125 94.0165 128.125 93.8693 128.125C93.722 128.125 93.4091 128.125 93.202 128.125L93.1836 127.941Z" fill="#CC0011" stroke="#CC0011" stroke-width="0.2"/>
<path d="M99.3669 127.941C99.7673 127.941 99.8777 127.785 99.8777 127.44V124.416C99.8777 124.071 99.7673 123.924 99.3669 123.919V123.73C99.574 123.73 99.8777 123.73 100.191 123.73C101.139 123.73 101.898 123.73 102.469 123.73L102.496 124.77H102.298C102.197 124.177 101.935 123.965 101.194 123.965H100.655V125.751H101.116C101.677 125.751 101.76 125.548 101.801 125.157H102.013C102.013 125.396 102.013 125.617 102.013 125.824C102.013 126.114 102.013 126.349 102.013 126.597H101.801C101.801 126.11 101.649 125.985 101.111 125.985H100.651V127.449C100.651 127.734 100.766 127.909 101.346 127.909C101.925 127.909 102.418 127.794 102.565 127.016H102.772C102.723 127.39 102.692 127.766 102.68 128.144C102.082 128.144 101.3 128.144 100.329 128.144C99.8685 128.144 99.4866 128.144 99.3623 128.144L99.3669 127.941Z" fill="#CC0011" stroke="#CC0011" stroke-width="0.2"/>
<path d="M104.111 123.731C104.636 123.731 104.839 123.731 105.032 123.731C105.225 123.731 105.414 123.731 105.952 123.731V123.919H105.773C105.566 123.919 105.441 124.011 105.441 124.177C105.451 124.292 105.481 124.404 105.529 124.508L106.417 127.021L107.462 123.652H107.572L108.773 127.035L109.514 124.545C109.55 124.431 109.575 124.314 109.588 124.195C109.588 123.984 109.422 123.924 109.127 123.919V123.731C109.335 123.731 109.611 123.731 109.818 123.731C110.025 123.731 110.305 123.731 110.503 123.731V123.919C110.08 123.919 109.979 124.057 109.85 124.453L108.598 128.167H108.419L107.277 125.028L106.233 128.167H106.049L104.696 124.485C104.516 123.979 104.424 123.938 104.098 123.919L104.111 123.731Z" fill="#CC0011" stroke="#CC0011" stroke-width="0.2"/>
<path d="M114.517 128.01L117.278 124.089H115.667C115.244 124.089 114.972 124.237 114.894 124.95H114.687L114.724 123.73C115.225 123.73 115.916 123.73 116.601 123.73C117.287 123.73 117.853 123.73 118.479 123.73L115.626 127.817H117.324C117.963 127.817 118.138 127.522 118.244 126.896H118.46L118.401 128.134C117.881 128.134 117.176 128.134 116.477 128.134C115.704 128.134 115 128.134 114.544 128.134L114.517 128.01Z" fill="#CC0011" stroke="#CC0011" stroke-width="0.2"/>
<path d="M119.801 127.941C120.202 127.941 120.312 127.785 120.312 127.44V124.416C120.312 124.071 120.202 123.924 119.801 123.919V123.73C120.009 123.73 120.312 123.73 120.63 123.73C121.55 123.73 122.332 123.73 122.903 123.73L122.931 124.77H122.733C122.632 124.177 122.369 123.965 121.628 123.965H121.09V125.751H121.55C122.112 125.751 122.194 125.548 122.236 125.157H122.447C122.447 125.396 122.447 125.617 122.447 125.824C122.447 126.114 122.447 126.349 122.447 126.597H122.236C122.236 126.11 122.084 125.985 121.546 125.985H121.085V127.449C121.085 127.734 121.205 127.909 121.785 127.909C122.365 127.909 122.852 127.794 123 127.016H123.207C123.157 127.39 123.126 127.766 123.115 128.144C122.517 128.144 121.734 128.144 120.763 128.144C120.303 128.144 119.921 128.144 119.797 128.144L119.801 127.941Z" fill="#CC0011" stroke="#CC0011" stroke-width="0.2"/>
<path d="M124.525 127.939C124.949 127.911 125.068 127.852 125.404 127.019L126.762 123.742H126.868L128.538 127.479C128.699 127.833 128.851 127.939 129.169 127.939V128.123C128.745 128.123 128.474 128.123 128.248 128.123C128.023 128.123 127.737 128.123 127.305 128.123V127.939C127.65 127.939 127.765 127.875 127.765 127.709C127.731 127.533 127.672 127.362 127.59 127.203L127.342 126.623H125.929L125.749 127.124C125.666 127.309 125.61 127.504 125.584 127.704C125.584 127.865 125.657 127.934 126.044 127.939V128.123C125.515 128.123 125.455 128.123 125.303 128.123C125.151 128.123 125.091 128.123 124.567 128.123L124.525 127.939ZM127.208 126.388L126.541 124.805L125.975 126.388H127.208Z" fill="#CC0011" stroke="#CC0011" stroke-width="0.2"/>
<path d="M130.365 127.941C130.77 127.941 130.881 127.785 130.881 127.44V124.416C130.881 124.071 130.77 123.924 130.365 123.919V123.73H131.286H132.206V123.919C131.806 123.919 131.695 124.071 131.695 124.416V127.449C131.695 127.771 131.87 127.877 132.385 127.877C133.2 127.877 133.605 127.771 133.729 127.007H133.941L133.84 128.134C133.218 128.134 132.04 128.134 130.862 128.134C130.709 128.126 130.555 128.126 130.402 128.134L130.365 127.941Z" fill="#CC0011" stroke="#CC0011" stroke-width="0.2"/>
<path d="M135.086 127.939C135.514 127.911 135.629 127.852 135.969 127.019L137.327 123.742H137.433L139.103 127.479C139.264 127.833 139.412 127.939 139.734 127.939V128.123C139.306 128.123 139.034 128.123 138.79 128.123C138.546 128.123 138.275 128.123 137.842 128.123V127.939C138.192 127.939 138.303 127.875 138.303 127.709C138.271 127.532 138.212 127.361 138.128 127.203L137.884 126.623H136.471L136.292 127.124C136.205 127.308 136.149 127.503 136.126 127.704C136.126 127.865 136.2 127.934 136.586 127.939V128.123C136.057 128.123 135.992 128.123 135.845 128.123C135.698 128.123 135.629 128.123 135.104 128.123L135.086 127.939ZM137.769 126.388L137.102 124.805L136.535 126.388H137.769Z" fill="#CC0011" stroke="#CC0011" stroke-width="0.2"/>
<path d="M140.89 127.941C141.295 127.941 141.405 127.785 141.405 127.44V124.416C141.405 124.071 141.295 123.924 140.89 123.919V123.73C141.143 123.73 141.387 123.73 141.557 123.73C141.727 123.73 141.874 123.73 142.054 123.73L144.958 126.984V124.448C144.958 124.076 144.87 123.919 144.428 123.919V123.73C144.654 123.73 144.889 123.73 145.096 123.73C145.303 123.73 145.556 123.73 145.777 123.73V123.919C145.376 123.919 145.266 124.071 145.266 124.416V128.167H145.017L141.681 124.485L141.732 127.384C141.732 127.844 141.856 127.904 142.243 127.941V128.125C142.059 128.125 141.723 128.125 141.575 128.125C141.428 128.125 141.115 128.125 140.908 128.125L140.89 127.941Z" fill="#CC0011" stroke="#CC0011" stroke-width="0.2"/>
<path d="M147.072 127.941C147.472 127.941 147.583 127.785 147.583 127.44V124.416C147.583 124.071 147.472 123.924 147.072 123.919V123.73C147.265 123.73 147.495 123.73 147.794 123.73C148.337 123.73 148.88 123.73 149.396 123.73C150.965 123.73 151.697 124.688 151.697 125.99C151.697 126.653 151.338 128.125 149.175 128.125C148.715 128.125 148.218 128.125 147.721 128.125C147.463 128.125 147.233 128.125 147.062 128.125L147.072 127.941ZM148.36 127.458C148.36 127.785 148.503 127.867 148.968 127.867C149.948 127.867 150.808 127.44 150.808 126.073C150.833 125.746 150.787 125.417 150.672 125.11C150.558 124.802 150.378 124.523 150.146 124.292C149.847 124.039 149.529 123.965 148.811 123.965H148.379L148.36 127.458Z" fill="#CC0011" stroke="#CC0011" stroke-width="0.2"/>
<path d="M33.5897 79.3723L33.5528 83.2976C33.5528 85.1383 33.4378 85.7182 32.9868 86.5189C32.2183 87.9362 30.7642 88.6909 28.8452 88.6909C26.4753 88.6909 24.6392 87.453 24.1514 85.4973C23.998 84.8416 23.9314 84.1685 23.9535 83.4955V79.4183C23.9535 78.116 23.8201 77.9181 22.7847 77.7156C22.7225 77.7105 22.6608 77.6997 22.6006 77.6834V77.2969H22.9181C23.3894 77.3378 23.8625 77.3547 24.3355 77.3475C24.9705 77.3475 25.6056 77.3475 25.8725 77.3475L26.7928 77.3107H27.1794V77.6926C26.1118 77.8123 25.8909 78.0792 25.8909 79.3309V83.8912C25.8909 85.2718 26.0105 85.8608 26.3787 86.5143C26.6847 87.0331 27.1259 87.4591 27.6551 87.7468C28.1844 88.0345 28.7818 88.1731 29.3836 88.1479C30.2172 88.1794 31.033 87.9018 31.6743 87.3683C32.3156 86.8349 32.7371 86.0833 32.858 85.258C32.9105 84.9 32.9335 84.5383 32.927 84.1766V83.7302L32.8258 79.4551C32.7935 78.0332 32.6417 77.8169 31.5557 77.6972H31.3532V77.3107H31.5373L32.2551 77.3429C32.476 77.3429 32.7153 77.3429 32.9592 77.3429C33.2031 77.3429 33.4608 77.3429 34.0084 77.3429H34.6803H34.9288V77.7432C33.921 77.7479 33.6035 78.1528 33.5897 79.3723Z" fill="#CC0011" stroke="#CC0011" stroke-width="0.2"/>
<path d="M48.9392 77.8039H48.8241C47.8393 77.8499 47.554 78.1859 47.554 79.3041V88.7424H47.1537L38.4839 79.2397V86.2022C38.4839 87.6564 38.7646 88.0061 39.9703 88.0429V88.4617H36.4453V88.0613C37.582 87.9785 37.8258 87.6287 37.8258 86.2206V78.9728C37.8258 78.1537 37.4761 77.8177 36.588 77.7855H36.4729V77.3668H36.7214H37.3427H37.9915H38.6266H39.4135L46.8177 85.5717V79.3547C46.8177 78.1353 46.6015 77.8868 45.4372 77.8039V77.3438H45.7041C46.1643 77.376 46.8914 77.3898 47.2733 77.3898H47.959H48.9438L48.9392 77.8039Z" fill="#CC0011" stroke="#CC0011" stroke-width="0.2"/>
<path d="M54.4827 77.7491C53.4657 77.7813 53.2311 78.0666 53.2311 79.2539V86.6168C53.2311 87.804 53.4657 88.0893 54.4827 88.1032V88.4897C53.498 88.4897 53.1482 88.4897 52.3291 88.4897C51.51 88.4897 51.1096 88.4897 50.1064 88.4897V88.1032C51.1096 88.1032 51.3627 87.804 51.3627 86.6168V79.2539C51.3627 78.0666 51.1096 77.7675 50.1064 77.7491V77.3672C51.1096 77.3672 51.6941 77.3672 52.6788 77.3672C53.6636 77.3672 53.8017 77.3672 54.4827 77.3672V77.7491Z" fill="#CC0011" stroke="#CC0011" stroke-width="0.2"/>
<path d="M68.0647 77.7041C67.0661 77.7685 66.5461 78.1228 66.1963 78.9742L65.9616 79.5724L62.2526 88.6793H61.9029L57.6278 79.5218C56.9744 78.1044 56.7075 77.8697 55.7549 77.7179V77.3359H57.0756C57.3103 77.3359 58.0604 77.3359 58.631 77.3359H59.4961H60.4487H60.8168V77.7225C59.9333 77.7225 59.4363 78.0216 59.4363 78.5554C59.4484 78.8047 59.511 79.0489 59.6204 79.2733L62.745 86.222L65.253 79.2733C65.3499 79.0047 65.4117 78.7248 65.437 78.4404C65.437 77.9802 65.1517 77.7731 64.3832 77.7363V77.3543H64.6317C64.733 77.3543 64.9677 77.3543 65.3174 77.3543C65.7776 77.3543 66.0537 77.3543 66.1687 77.3543C66.2838 77.3543 66.5875 77.3543 67.0201 77.3543H67.7563H68.0555L68.0647 77.7041Z" fill="#CC0011" stroke="#CC0011" stroke-width="0.2"/>
<path d="M76.6193 77.4878L76.6837 78.2563C76.7205 78.6705 76.7665 79.0892 76.854 79.6921L76.8862 79.9589L76.3524 80.0096C76.3003 79.5121 76.1017 79.0412 75.7818 78.6566C75.2664 78.0722 74.8614 77.9526 73.26 77.9526H72.0911V82.4623H73.2278C74.7141 82.4623 75.0133 82.2644 75.0685 81.1278V80.9115H75.6207V81.0772L75.5885 81.8135C75.5885 82.0298 75.5885 82.3289 75.5885 82.7338C75.5885 83.1388 75.5885 83.3505 75.5885 83.5345L75.6207 84.3537V84.6344H75.0685C75.0685 83.3689 74.751 83.1158 73.1311 83.1158H72.0451V86.4935C72.0451 87.6301 72.3166 87.874 73.6005 87.874C75.9014 87.874 76.6239 87.3724 77.0058 85.5363L77.5442 85.6376C77.4614 86.3048 77.374 87.2068 77.3234 88.1409V88.4769C76.6055 88.4769 75.6023 88.4769 74.3506 88.4769C73.8168 88.4769 73.4993 88.4769 71.4929 88.4769H70.1124L68.9619 88.5091V88.1271C69.9605 88.1271 70.2136 87.8234 70.2136 86.6408V79.2411C70.2136 78.0354 69.9605 77.7547 68.9619 77.7363V77.3359H69.3117H70.163H71.4009H72.8688H74.5715H76.0947H76.6101L76.6193 77.4878Z" fill="#CC0011" stroke="#CC0011" stroke-width="0.2"/>
<path d="M79.3852 77.3335C79.8454 77.3335 80.3056 77.3335 80.821 77.3335C81.5067 77.3335 82.2015 77.3335 82.9792 77.2829C83.513 77.2829 83.9456 77.2461 84.2815 77.2461C86.3017 77.2461 87.6224 78.4011 87.6224 80.1222C87.6277 80.6236 87.4986 81.1172 87.2485 81.5518C86.9985 81.9863 86.6366 82.346 86.2005 82.5934C85.9246 82.7376 85.6326 82.8488 85.3307 82.9247C85.58 83.1429 85.7807 83.4109 85.9198 83.7116L86.8401 85.4143C87.8249 87.255 87.9906 87.4851 88.4231 87.8026C88.5915 87.9294 88.7867 88.016 88.9938 88.0557C89.163 88.0928 89.336 88.1098 89.5092 88.1063V88.4883C89.1563 88.5459 88.7991 88.5736 88.4415 88.5711C87.9817 88.5923 87.5223 88.5191 87.0918 88.3561C86.6613 88.193 86.2687 87.9436 85.9382 87.6231C85.4366 87.1031 84.9672 86.3024 84.0652 84.4295C83.6051 83.5091 83.2645 83.2468 82.3948 83.2468H82.2936V86.2518C82.2936 87.7198 82.4776 87.9361 83.7477 88.0051V88.4653H82.2291H81.1247C80.5219 88.4653 80.1215 88.4653 79.1689 88.4653V88.0787C80.1905 88.0787 80.4252 87.7796 80.4252 86.5923V79.2203C80.4252 78.0192 80.1905 77.7339 79.1689 77.7155V77.3151L79.3852 77.3335ZM82.2752 82.713C82.5283 82.713 82.6111 82.713 82.7583 82.713C83.3368 82.7425 83.9156 82.6645 84.4656 82.4829C84.8211 82.3111 85.1155 82.0349 85.3096 81.6911C85.5037 81.3473 85.5881 80.9525 85.5516 80.5594C85.5642 80.1122 85.4727 79.6682 85.2842 79.2625C85.0957 78.8568 84.8155 78.5005 84.4656 78.2217C83.9622 77.876 83.3515 77.7225 82.7445 77.7891H82.2844L82.2752 82.713Z" fill="#CC0011" stroke="#CC0011" stroke-width="0.2"/>
<path d="M97.765 80.2425H97.2312C97.171 79.753 97.0062 79.2822 96.748 78.862C96.4899 78.4842 96.143 78.1755 95.7379 77.9629C95.3327 77.7503 94.8816 77.6403 94.4241 77.6425C93.9394 77.6109 93.4618 77.7721 93.0955 78.091C92.7292 78.4099 92.5037 78.8608 92.4683 79.3452C92.4683 79.948 92.8043 80.4128 93.5866 80.9006L95.2432 81.8532C96.7802 82.7045 97.3968 83.2061 97.7834 83.924C98.005 84.3628 98.1141 84.8499 98.1009 85.3413C98.1009 87.3477 96.6099 88.6822 94.4195 88.6822C93.2686 88.6664 92.1219 88.5384 90.9958 88.3003L90.8623 85.4932L91.4145 85.4426L91.4467 85.5576C91.5107 85.954 91.6567 86.3327 91.8754 86.6695C92.0941 87.0063 92.3807 87.2937 92.7168 87.5134C93.2507 87.9066 93.8945 88.1223 94.5575 88.13C94.816 88.1411 95.0741 88.1004 95.3166 88.0104C95.5591 87.9204 95.7812 87.7828 95.9698 87.6058C96.1584 87.4287 96.3098 87.2158 96.415 86.9794C96.5201 86.7431 96.577 86.4881 96.5823 86.2295C96.5829 85.9256 96.4949 85.6282 96.3292 85.3735C95.9795 84.8581 95.6297 84.6418 93.605 83.6064C91.7643 82.6861 90.8991 81.6507 90.8991 80.3852C90.9223 79.7451 91.126 79.1246 91.4867 78.5954C91.8474 78.0661 92.3504 77.6496 92.9377 77.394C93.5279 77.183 94.1518 77.0816 94.7784 77.0949C95.6682 77.116 96.5554 77.199 97.4337 77.3434L97.6361 77.3756L97.765 80.2425Z" fill="#CC0011" stroke="#CC0011" stroke-width="0.2"/>
<path d="M103.86 77.7491C102.838 77.7813 102.608 78.0666 102.608 79.2539V86.6168C102.608 87.804 102.838 88.0893 103.86 88.1032V88.4897C102.875 88.4897 102.521 88.4897 101.706 88.4897C100.892 88.4897 100.487 88.4897 99.4834 88.4897V88.1032C100.487 88.1032 100.735 87.804 100.735 86.6168V79.2539C100.735 78.0666 100.487 77.7675 99.4834 77.7491V77.3672C100.487 77.3672 101.071 77.3672 102.056 77.3672C102.976 77.3672 103.174 77.3672 103.86 77.3672V77.7491Z" fill="#CC0011" stroke="#CC0011" stroke-width="0.2"/>
<path d="M115.37 80.389H114.818C114.735 79.3858 114.482 78.8382 113.998 78.5207C113.617 78.2538 113.396 78.2032 112.531 78.2032H111.21V86.6014C111.21 87.8209 111.445 88.1062 112.461 88.1246V88.4928H111.081H109.457C109.139 88.4928 108.688 88.4928 108.076 88.4928V88.1246C109.098 88.1246 109.332 87.8071 109.332 86.6198V78.2078H107.616C106.364 78.2078 105.899 78.7416 105.697 80.412H105.131L105.278 77.3242H105.531H112.31H113.865H114.983H115.287L115.37 80.389Z" fill="#CC0011" stroke="#CC0011" stroke-width="0.2"/>
<path d="M127.528 77.7487C126.741 77.8315 126.428 78.0984 125.876 79.1292L123.051 84.5225V86.5473C123.051 87.799 123.267 88.0337 124.523 88.0981V88.4847H124.137H120.179H119.645V88.0981C120.948 88.0981 121.182 87.8496 121.182 86.5289V84.5225L118.881 79.8149C118.016 78.011 117.8 77.8085 116.746 77.7073V77.3438H117.077H117.998C118.601 77.3438 119.065 77.3438 119.378 77.3438C119.931 77.3438 120.966 77.3438 121.5 77.3438H121.803V77.7487C120.814 77.8315 120.566 77.9834 120.566 78.4988C120.571 78.7653 120.633 79.0275 120.75 79.2673L122.82 83.6436L124.891 79.3363C125.025 79.09 125.099 78.8158 125.108 78.5356C125.108 78.0478 124.808 77.8177 124.109 77.7671V77.3806H124.339H124.942H126.714H127.229H127.514L127.528 77.7487Z" fill="#CC0011" stroke="#CC0011" stroke-width="0.2"/>
<path d="M137.247 88.7091C133.543 88.7091 130.754 86.2011 130.754 82.8602C130.754 79.5193 133.34 77.1172 136.814 77.1172C140.404 77.1172 142.976 79.5561 142.976 82.9615C142.976 86.3668 140.625 88.7091 137.247 88.7091ZM136.566 77.6648C134.376 77.6648 133.041 79.4687 133.041 82.4092C133.041 85.7317 134.794 88.1523 137.183 88.1523C139.318 88.1523 140.689 86.3116 140.689 83.4124V83.21C140.606 79.8875 138.908 77.651 136.566 77.651V77.6648Z" fill="#CC0011" stroke="#CC0011" stroke-width="0.2"/>
<path d="M151.665 77.6707C151.665 77.8042 151.665 77.9514 151.698 78.1309C151.698 78.4991 151.698 78.7476 151.73 78.8994L151.794 79.5897L151.826 79.9716L151.334 80.0499C151.298 79.5606 151.112 79.0944 150.8 78.7154C150.266 78.0941 149.65 77.91 147.979 77.91H146.732V82.4704H147.97C149.641 82.4704 149.958 82.2357 150.009 80.9334H150.506C150.474 81.6881 150.46 82.314 150.46 83.041C150.46 83.4092 150.46 83.7911 150.46 84.2927V84.5918H149.958C149.875 83.3908 149.498 83.1055 147.855 83.1055H146.732V86.612C146.732 87.8315 146.985 88.1168 148.053 88.1168H148.205V88.5034H147.887H143.714H143.58V88.1168C144.583 88.1168 144.832 87.8177 144.832 86.6304V79.2216C144.832 78.0205 144.597 77.7168 143.58 77.703V77.3164C143.764 77.3164 143.898 77.3164 143.98 77.3164C144.063 77.3164 144.482 77.3164 145.214 77.3164L146.502 77.3486H149.954C150.736 77.3486 150.952 77.3486 151.638 77.3486L151.665 77.6707Z" fill="#CC0011" stroke="#CC0011" stroke-width="0.2"/>
<path d="M35.5926 104.924C33.623 106.304 31.9112 106.87 29.8082 106.87C25.6021 106.87 22.749 104.229 22.749 100.294C22.749 96.2493 25.777 93.4883 30.2131 93.4883C31.9507 93.5186 33.6674 93.8729 35.2751 94.5329V94.8182V95.6879V97.3262V97.7311H34.8471C34.5388 95.5913 32.6889 94.1049 30.319 94.1049C28.1975 94.1049 26.7296 95.0529 25.9197 96.9626C25.5678 97.8408 25.3851 98.7776 25.3812 99.7237C25.3812 103.405 27.5625 106.203 30.3926 106.203C31.7731 106.203 32.919 105.642 34.1568 104.39C34.6395 103.922 35.0546 103.389 35.3901 102.807H35.5236L35.5926 104.924Z" fill="#CC0011" stroke="#CC0011" stroke-width="0.2"/>
<path d="M47.3309 103.9C48.104 105.672 48.4905 106.059 49.7238 106.201V106.625H49.2222H44.2661V106.164H44.4226C45.1358 106.164 45.481 105.934 45.481 105.414C45.4679 105.194 45.4165 104.978 45.3291 104.775L44.2661 102.138H40.1613L39.2732 104.586C39.1646 104.845 39.0934 105.117 39.0615 105.396C39.0615 105.898 39.4066 106.109 40.2165 106.128H40.4466V106.588C39.7932 106.588 39.5815 106.588 38.79 106.588H36.0703V106.128C37.1333 106.128 37.8282 105.511 38.4034 104.121L42.8027 93.3945L47.3309 103.9ZM40.3362 101.567H43.921L42.0112 96.9195L40.3362 101.567Z" fill="#CC0011" stroke="#CC0011" stroke-width="0.2"/>
<path d="M64.4916 94.2778H64.3582C63.2215 94.3376 62.8948 94.738 62.8948 96.0127V106.91H62.4346L52.4257 95.9391L52.3935 103.978C52.3935 105.653 52.7202 106.058 54.11 106.118V106.601H50.042V106.141C51.3535 106.045 51.6434 105.64 51.6434 104.02V95.6261C51.6434 94.6828 51.2385 94.2962 50.2169 94.2456H50.0926V93.7624H50.3825H51.0958H51.8505H52.5822H53.5025L62.0573 103.265V96.0725C62.0573 94.6644 61.8088 94.3745 60.4558 94.2778V93.7578H60.7642C61.3072 93.7946 62.1447 93.8176 62.5773 93.8176L63.3688 93.7946H64.5054L64.4916 94.2778Z" fill="#CC0011" stroke="#CC0011" stroke-width="0.2"/>
<path d="M77.3887 97.2697H76.7536C76.657 96.11 76.3671 95.475 75.8103 95.1068C75.3501 94.7985 75.1154 94.7433 74.1122 94.7433H72.589V104.439C72.589 105.847 72.8605 106.174 74.034 106.197V106.62H72.4556H70.5458C70.1777 106.62 69.6577 106.62 68.9628 106.62V106.197C70.1409 106.174 70.4124 105.829 70.4124 104.458V94.7755H68.4428C66.9978 94.7755 66.4594 95.3921 66.2247 97.3203H65.5713L65.7462 93.7539H66.0361H73.8591H75.6492H76.9423H77.292L77.3887 97.2697Z" fill="#CC0011" stroke="#CC0011" stroke-width="0.2"/>
<path d="M87.3385 93.9132L87.4167 94.7967C87.4581 95.2799 87.5134 95.7631 87.61 96.4579L87.6514 96.7663L87.0302 96.8215C86.9704 96.2486 86.7431 95.706 86.3767 95.2615C85.7785 94.585 85.2953 94.4516 83.4638 94.4516H82.1155V99.6562H83.427C85.1434 99.6562 85.4886 99.4261 85.5668 98.1146V97.8615H86.2019V98.0548L86.165 98.9061C86.165 99.1546 86.165 99.5043 86.165 99.9461C86.165 100.388 86.165 100.659 86.165 100.866L86.2019 101.81V102.137H85.5668C85.5668 100.669 85.2033 100.379 83.3303 100.379H82.0787V104.313C82.0787 105.625 82.387 105.896 83.8687 105.896C86.5102 105.896 87.3615 105.316 87.8033 103.195L88.4199 103.31C88.3233 104.083 88.2266 105.123 88.1714 106.205V106.591C87.3385 106.568 86.1834 106.568 84.7385 106.568C84.1218 106.568 83.7537 106.568 81.439 106.591H79.8192C79.0875 106.591 78.9724 106.591 78.4893 106.628V106.168C79.6489 106.145 79.9388 105.818 79.9388 104.451V95.9379C79.9388 94.5574 79.6489 94.2215 78.4893 94.1985V93.7383H78.8942H79.879H81.3055H83.0036H84.9686H86.7219H87.3201L87.3385 93.9132Z" fill="#CC0011" stroke="#CC0011" stroke-width="0.2"/>
<path d="M90.5413 93.7412C91.0797 93.7412 91.6227 93.7412 92.198 93.7412C92.9895 93.7412 93.7994 93.7412 94.6875 93.6859C95.3042 93.6629 95.8058 93.6445 96.1923 93.6445C98.5254 93.6445 100.049 94.9744 100.049 96.9624C100.059 97.5447 99.9121 98.1191 99.6239 98.6251C99.3356 99.1312 98.9164 99.5503 98.4104 99.8385C98.0908 100.003 97.7544 100.133 97.4072 100.225C97.6938 100.481 97.9228 100.795 98.079 101.145L99.119 103.11C100.26 105.232 100.454 105.503 100.96 105.871C101.153 106.017 101.376 106.116 101.613 106.161C101.81 106.205 102.01 106.225 102.211 106.221V106.681C101.804 106.747 101.391 106.78 100.978 106.778C100.446 106.802 99.9149 106.717 99.4171 106.528C98.9194 106.338 98.4655 106.049 98.0836 105.678C97.5084 105.08 96.9654 104.155 95.9254 101.997C95.4054 100.915 95.005 100.616 93.9973 100.616H93.8822V104.091C93.8822 105.784 94.0939 106.037 95.5573 106.111V106.654H93.804H92.5339C91.839 106.654 91.3742 106.654 90.2744 106.654V106.194C91.4525 106.194 91.724 105.848 91.724 104.477V95.9178C91.724 94.5373 91.4525 94.2013 90.2744 94.1829V93.7228L90.5413 93.7412ZM93.8776 99.949C94.1675 99.949 94.2642 99.949 94.4344 99.949C95.1017 99.9813 95.7693 99.8908 96.404 99.6821C97.1955 99.3507 97.6557 98.5408 97.6557 97.464C97.6704 96.9476 97.5651 96.4348 97.3478 95.966C97.1306 95.4973 96.8075 95.0854 96.404 94.7628C95.8426 94.3762 95.4192 94.2612 94.416 94.2612H93.8776V99.949Z" fill="#CC0011" stroke="#CC0011" stroke-width="0.2"/>
<path d="M102.865 93.7215C103.021 93.7215 103.426 93.7215 104.061 93.7215C104.853 93.7215 105.336 93.7215 105.488 93.7215C105.778 93.7215 106.242 93.7215 106.868 93.7215C107.232 93.7215 107.563 93.7215 107.853 93.7215C108.569 93.6774 109.287 93.7679 109.97 93.9884C110.592 94.1741 111.138 94.5529 111.531 95.07C111.923 95.5871 112.14 96.2156 112.151 96.8646C112.151 98.4614 110.858 99.6256 108.893 99.8511C109.494 99.8881 110.085 100.018 110.646 100.238C111.261 100.461 111.791 100.871 112.161 101.411C112.531 101.951 112.722 102.593 112.708 103.247C112.708 105.424 111.07 106.602 108.106 106.602H102.52V106.142C103.698 106.142 103.983 105.797 103.983 104.425V95.8982C103.983 94.5176 103.698 94.1817 102.52 94.1633V93.7031C102.634 93.7166 102.749 93.7227 102.865 93.7215ZM106.146 99.7038C106.427 99.7354 106.71 99.7477 106.992 99.7407C108.373 99.7407 108.902 99.5474 109.422 98.8525C109.683 98.4646 109.847 98.0204 109.903 97.5565C109.958 97.0926 109.903 96.6221 109.741 96.1838C109.579 95.7454 109.316 95.3517 108.973 95.0348C108.629 94.718 108.215 94.4871 107.766 94.3612C107.435 94.3025 107.099 94.2763 106.762 94.2829H106.146V99.7038ZM106.146 104.365C106.146 105.746 106.413 106.064 107.572 106.064C109.362 106.064 110.269 105.254 110.269 103.615C110.269 101.977 109.247 100.629 107.881 100.394C107.511 100.33 107.137 100.298 106.762 100.297C106.556 100.3 106.35 100.314 106.146 100.339V104.365Z" fill="#CC0011" stroke="#CC0011" stroke-width="0.2"/>
<path d="M126.137 96.0935L126.095 100.626C126.095 102.748 125.962 103.42 125.442 104.363C124.554 106.006 122.879 106.871 120.638 106.871C117.904 106.871 115.783 105.444 115.221 103.189C115.043 102.436 114.965 101.662 114.991 100.889V96.158C114.991 94.6532 114.835 94.4231 113.638 94.1884C113.567 94.1832 113.496 94.1709 113.427 94.1516V93.6914H113.795C114.527 93.7466 114.78 93.7466 115.433 93.7466C116.165 93.7466 116.901 93.7466 117.209 93.7466L118.286 93.7098H118.746V94.17C117.509 94.3034 117.26 94.6302 117.26 96.0567V101.321C117.26 102.923 117.393 103.599 117.821 104.349C118.174 104.949 118.683 105.442 119.295 105.775C119.906 106.108 120.596 106.269 121.291 106.24C122.253 106.276 123.194 105.955 123.933 105.339C124.673 104.723 125.159 103.856 125.299 102.904C125.36 102.49 125.386 102.071 125.378 101.652V101.169L125.263 96.2316C125.226 94.5934 125.051 94.3449 123.795 94.2068H123.564V93.7466H123.776L124.605 93.7834C124.858 93.7834 125.129 93.7834 125.414 93.7834C125.7 93.7834 125.994 93.7834 126.629 93.7834H127.402H127.692V94.2436C126.519 94.2436 126.155 94.6854 126.137 96.0935Z" fill="#CC0011" stroke="#CC0011" stroke-width="0.2"/>
<path d="M128.6 93.7412C129.138 93.7412 129.681 93.7412 130.257 93.7412C131.048 93.7412 131.858 93.7412 132.746 93.6859C133.363 93.6629 133.864 93.6445 134.251 93.6445C136.584 93.6445 138.107 94.9744 138.107 96.9624C138.115 97.5418 137.967 98.1126 137.678 98.6147C137.389 99.1168 136.969 99.5317 136.464 99.8155C136.147 99.9809 135.812 100.111 135.466 100.202C135.752 100.458 135.981 100.772 136.138 101.122L137.178 103.087C138.319 105.209 138.512 105.48 139.018 105.848C139.211 105.994 139.435 106.093 139.672 106.138C139.868 106.182 140.069 106.202 140.27 106.198V106.658C139.862 106.724 139.45 106.757 139.037 106.755C138.503 106.776 137.971 106.688 137.474 106.496C136.976 106.304 136.523 106.011 136.142 105.637C135.567 105.039 135.024 104.114 133.984 101.955C133.464 100.874 133.064 100.575 132.056 100.575H131.941V104.049C131.941 105.743 132.152 105.996 133.616 106.069V106.612H131.863H130.588C129.898 106.612 129.433 106.612 128.333 106.612V106.152C129.511 106.152 129.783 105.807 129.783 104.436V95.9178C129.783 94.5373 129.511 94.2013 128.333 94.1829V93.7228L128.6 93.7412ZM131.936 99.949C132.226 99.949 132.323 99.949 132.493 99.949C133.16 99.9813 133.828 99.8908 134.463 99.6821C135.249 99.3507 135.714 98.5408 135.714 97.464C135.729 96.9476 135.624 96.4348 135.406 95.966C135.189 95.4973 134.866 95.0854 134.463 94.7628C133.901 94.3762 133.478 94.2612 132.475 94.2612H131.936V99.949Z" fill="#CC0011" stroke="#CC0011" stroke-width="0.2"/>
<path d="M151.791 94.1989C150.87 94.2955 150.521 94.6038 149.886 95.8187L146.628 102.05V104.383C146.628 105.828 146.876 106.099 148.321 106.173V106.633H147.861H143.291H142.675V106.173C144.179 106.173 144.446 105.887 144.446 104.36V102.059L141.828 96.6148C140.825 94.5348 140.576 94.3139 139.361 94.1851V93.7617H139.748H140.806C141.501 93.7617 142.04 93.7617 142.408 93.7617C143.043 93.7617 144.248 93.7617 144.856 93.7617H145.201V94.2219C144.064 94.3185 143.774 94.4934 143.774 95.0916C143.781 95.3994 143.853 95.7022 143.986 95.9798L146.379 101.042L148.772 96.0672C148.924 95.7834 149.009 95.4686 149.02 95.1469C149.02 94.59 148.675 94.3185 147.865 94.2633V93.8031H148.132H148.827H150.87H151.469H151.791V94.1989Z" fill="#CC0011" stroke="#CC0011" stroke-width="0.2"/>
</g>
<defs>
<clipPath id="clip0_684_57616">
<rect width="133.76" height="102.887" fill="white" transform="translate(18.1201 25.3672)"/>
</clipPath>
</defs>
</svg>
